<svg viewBox="0 0 800 600" xmlns="http://www.w3.org/2000/svg" font-family="'Helvetica Neue', Arial, sans-serif">
  <rect width="800" height="600" fill="#f2f2f2"/>
  <rect x="15" y="15" width="770" height="570" rx="8" fill="white" stroke="#d0d0d0" stroke-width="2"/>

  <!-- MAIN STAGE -->
  <rect x="30" y="28" width="740" height="105" rx="6" fill="#3D7FE0" fill-opacity="0.12" stroke="#3D7FE0" stroke-width="1.5"/>
  <text x="400" y="78" text-anchor="middle" font-size="22" font-weight="bold" fill="#3D7FE0">MAIN STAGE</text>
  <text x="400" y="102" text-anchor="middle" font-size="12" fill="#3D7FE0" opacity="0.7">ステージエリア</text>

  <!-- Section labels -->
  <text x="195" y="158" text-anchor="middle" font-size="11" fill="#999">展示ブース（左エリア）</text>
  <text x="605" y="158" text-anchor="middle" font-size="11" fill="#999">展示ブース（右エリア）</text>

  <!-- Left booths Row 1 -->
  <rect x="35" y="168" width="100" height="72" rx="4" fill="#f0f7ff" stroke="#90b4e8" stroke-width="1.5"/>
  <text x="85" y="209" text-anchor="middle" font-size="13" font-weight="bold" fill="#555">B01</text>
  <rect x="145" y="168" width="100" height="72" rx="4" fill="#f0f7ff" stroke="#90b4e8" stroke-width="1.5"/>
  <text x="195" y="209" text-anchor="middle" font-size="13" font-weight="bold" fill="#555">B02</text>
  <rect x="255" y="168" width="100" height="72" rx="4" fill="#f0f7ff" stroke="#90b4e8" stroke-width="1.5"/>
  <text x="305" y="209" text-anchor="middle" font-size="13" font-weight="bold" fill="#555">B03</text>

  <!-- Left booths Row 2 -->
  <rect x="35" y="252" width="100" height="72" rx="4" fill="#f0f7ff" stroke="#90b4e8" stroke-width="1.5"/>
  <text x="85" y="293" text-anchor="middle" font-size="13" font-weight="bold" fill="#555">B04</text>
  <rect x="145" y="252" width="100" height="72" rx="4" fill="#f0f7ff" stroke="#90b4e8" stroke-width="1.5"/>
  <text x="195" y="293" text-anchor="middle" font-size="13" font-weight="bold" fill="#555">B05</text>
  <rect x="255" y="252" width="100" height="72" rx="4" fill="#f0f7ff" stroke="#90b4e8" stroke-width="1.5"/>
  <text x="305" y="293" text-anchor="middle" font-size="13" font-weight="bold" fill="#555">B06</text>

  <!-- Left booths Row 3 -->
  <rect x="35" y="336" width="100" height="72" rx="4" fill="#f0f7ff" stroke="#90b4e8" stroke-width="1.5"/>
  <text x="85" y="377" text-anchor="middle" font-size="13" font-weight="bold" fill="#555">B07</text>
  <rect x="145" y="336" width="100" height="72" rx="4" fill="#f0f7ff" stroke="#90b4e8" stroke-width="1.5"/>
  <text x="195" y="377" text-anchor="middle" font-size="13" font-weight="bold" fill="#555">B08</text>
  <rect x="255" y="336" width="100" height="72" rx="4" fill="#f0f7ff" stroke="#90b4e8" stroke-width="1.5"/>
  <text x="305" y="377" text-anchor="middle" font-size="13" font-weight="bold" fill="#555">B09</text>

  <!-- Center aisle -->
  <rect x="368" y="158" width="64" height="262" fill="#ebebeb" rx="2"/>
  <text x="400" y="294" text-anchor="middle" font-size="11" fill="#aaa" transform="rotate(-90 400 294)">中央通路</text>

  <!-- Right booths Row 1 -->
  <rect x="445" y="168" width="100" height="72" rx="4" fill="#f0f7ff" stroke="#90b4e8" stroke-width="1.5"/>
  <text x="495" y="209" text-anchor="middle" font-size="13" font-weight="bold" fill="#555">B10</text>
  <rect x="555" y="168" width="100" height="72" rx="4" fill="#f0f7ff" stroke="#90b4e8" stroke-width="1.5"/>
  <text x="605" y="209" text-anchor="middle" font-size="13" font-weight="bold" fill="#555">B11</text>
  <rect x="665" y="168" width="100" height="72" rx="4" fill="#f0f7ff" stroke="#90b4e8" stroke-width="1.5"/>
  <text x="715" y="209" text-anchor="middle" font-size="13" font-weight="bold" fill="#555">B12</text>

  <!-- Right booths Row 2 -->
  <rect x="445" y="252" width="100" height="72" rx="4" fill="#f0f7ff" stroke="#90b4e8" stroke-width="1.5"/>
  <text x="495" y="293" text-anchor="middle" font-size="13" font-weight="bold" fill="#555">B13</text>
  <rect x="555" y="252" width="100" height="72" rx="4" fill="#f0f7ff" stroke="#90b4e8" stroke-width="1.5"/>
  <text x="605" y="293" text-anchor="middle" font-size="13" font-weight="bold" fill="#555">B14</text>
  <rect x="665" y="252" width="100" height="72" rx="4" fill="#f0f7ff" stroke="#90b4e8" stroke-width="1.5"/>
  <text x="715" y="293" text-anchor="middle" font-size="13" font-weight="bold" fill="#555">B15</text>

  <!-- Right booths Row 3 -->
  <rect x="445" y="336" width="100" height="72" rx="4" fill="#f0f7ff" stroke="#90b4e8" stroke-width="1.5"/>
  <text x="495" y="377" text-anchor="middle" font-size="13" font-weight="bold" fill="#555">B16</text>
  <rect x="555" y="336" width="100" height="72" rx="4" fill="#f0f7ff" stroke="#90b4e8" stroke-width="1.5"/>
  <text x="605" y="377" text-anchor="middle" font-size="13" font-weight="bold" fill="#555">B17</text>
  <rect x="665" y="336" width="100" height="72" rx="4" fill="#f0f7ff" stroke="#90b4e8" stroke-width="1.5"/>
  <text x="715" y="377" text-anchor="middle" font-size="13" font-weight="bold" fill="#555">B18</text>

  <!-- Divider -->
  <line x1="15" y1="432" x2="785" y2="432" stroke="#e0e0e0" stroke-width="1.5"/>

  <!-- GOODS -->
  <rect x="30" y="442" width="175" height="108" rx="6" fill="#fdf0ff" stroke="#cc80e8" stroke-width="1.5"/>
  <text x="118" y="491" text-anchor="middle" font-size="13" font-weight="bold" fill="#9b39c5">グッズ売り場</text>
  <text x="118" y="510" text-anchor="middle" font-size="11" fill="#9b39c5" opacity="0.7">GOODS SHOP</text>

  <!-- ENTRANCE -->
  <rect x="218" y="442" width="364" height="108" rx="6" fill="#f0fff4" stroke="#5bc879" stroke-width="2"/>
  <text x="400" y="491" text-anchor="middle" font-size="16" font-weight="bold" fill="#2d8a4a">エントランス</text>
  <text x="400" y="512" text-anchor="middle" font-size="12" fill="#2d8a4a" opacity="0.7">ENTRANCE / EXIT</text>
  <path d="M 385 530 L 400 544 L 415 530" fill="none" stroke="#2d8a4a" stroke-width="2" stroke-linecap="round" stroke-linejoin="round"/>

  <!-- FOOD -->
  <rect x="595" y="442" width="175" height="108" rx="6" fill="#fff8f0" stroke="#e8a054" stroke-width="1.5"/>
  <text x="683" y="491" text-anchor="middle" font-size="13" font-weight="bold" fill="#d4721b">フードコート</text>
  <text x="683" y="510" text-anchor="middle" font-size="11" fill="#d4721b" opacity="0.7">FOOD COURT</text>
</svg>
