<svg xmlns="http://www.w3.org/2000/svg" viewBox="0 0 500 193.35"><defs><style>.b{fill:#fff}.c{fill:#2cbedb}.d{fill:#fd0}.e{fill:#3976cc}</style></defs><path class="c" d="M37.05 130.65C12.73 130.65 0 109.78 0 90.19 0 78.31 4.55 53.05 36.93 45.5c.25-.06.43-.28.43-.53v-7.63a.56.56 0 00-.56-.56H17.31V16.76H36.8c.31 0 .56-.25.56-.56V5.6h20.07v10.61c0 .31.25.56.56.56h35.92v20.02H57.99a.56.56 0 00-.56.56v5.2c0 .31.26.55.57.55 52.84-.64 56.84 32.41 56.84 46.12s-3.54 33.21-26.88 42.14l-7.01-18.81c11.09-4.84 13.81-12.62 13.81-22.06 0-4.17.25-10.79-4.18-17.77-.28-.43-.95-.27-1.03.24-2.38 16.08-7.82 28.12-15.19 37.35-9.79 12.26-23.39 20.35-37.31 20.35zM20.14 90.19c0 12.57 6.48 20.38 16.91 20.38 7.54 0 15.28-4.28 21.23-11.73 4.69-5.87 10.77-17.35 11.98-34.68.02-.3-.19-.57-.49-.61-4.69-.63-10.13-.58-11.82-.54-.3 0-.53.25-.53.56v15.68H37.35V66.28c0-.39-.41-.66-.77-.53-14.83 5.55-16.45 16.62-16.45 24.44z"/><path class="e" d="M156.52 184.5c-9.58 0-18.61-4.24-25.12-11.65-6.48-7.38-9.91-17.25-9.91-28.55 0-25.1 17.73-42.94 46.9-46.74.27-.04.48-.27.48-.54v-5.05a.56.56 0 00-.56-.56h-27.99V71.34h27.99c.31 0 .56-.25.56-.56V60.2h20.07v10.58c0 .31.25.56.56.56h16.69v20.07H189.5a.56.56 0 00-.56.56v5.11c0 .29.23.53.52.55 43.03 3.18 46.87 34.53 46.87 46.68 0 23.59-12.69 35.46-27.3 40.91l-6.97-18.83c13.02-5.12 14.19-14.66 14.19-22.08 0-9.76-4.29-25.21-26.62-26.8-.33-.02-.62.25-.61.57.37 25.23-.4 48.98-11.77 59.22-5.18 4.66-11.52 7.21-20.73 7.21zm-14.95-40.2c0 13.83 7.64 20.45 15.19 20.45 3.55 0 5.16-1.74 5.67-2.24 5.53-5.47 6.5-17.57 6.51-44.64 0-.35-.34-.63-.68-.57-17.89 3.32-26.69 13-26.69 27z"/><path class="d" d="M246.04 81.26c-10.56 3.16-13.12 5.72-16.27 16.27-3.16-10.56-5.72-13.12-16.27-16.27 10.56-3.16 13.12-5.72 16.27-16.27 3.16 10.56 5.72 13.12 16.27 16.27z"/><path class="e" d="M379.66 193.35v-20.07c10.4.06 32.82.52 47.27-6 8.65-3.9 20.08-12.35 20.08-39.38 0-17.75-7.75-32.74-16.93-32.74-12.86 0-17.73 11.42-24.21 30.23-5 14.5-8.93 30.93-22.49 30.93-5.54 0-14.31-4.49-14.31-18.13V79.35h20.08v35.05c0 .62.87.79 1.08.2 5.64-15.7 13.08-39.52 39.86-39.52 21.1 0 37.01 22.71 37.01 52.82 0 28.54-10.69 47.93-31.76 57.62-17.05 7.84-36.36 7.84-55.66 7.84z"/><path class="c" d="M373.81 24.99c-10.56 3.16-13.12 5.72-16.27 16.27-3.16-10.56-5.72-13.12-16.27-16.27 10.56-3.16 13.12-5.72 16.27-16.27 3.16 10.56 5.72 13.12 16.27 16.27zm14.8 23.66c-7.77 2.32-9.65 4.21-11.97 11.97-2.32-7.77-4.21-9.65-11.97-11.97 7.77-2.32 9.65-4.21 11.97-11.97 2.32 7.77 4.21 9.65 11.97 11.97zm-85.22 110.74c-15.99 0-30.13.6-40.75-7.93-9.31-7.47-14.58-23.64-6.77-36.87 6.77-11.46 18.35-17.03 35.41-17.03 7.44 0 19.81 1.73 24.84 3.02.43.11.79-.31.64-.73l-2.49-7.01c-.16-.44-.58-.74-1.05-.74h-49.77V72.03h42.64c.38 0 .65-.38.52-.74l-1.74-4.89a.787.787 0 00-.75-.53h-40.68V45.8h33.33c.38 0 .65-.38.52-.74l-3.71-10.45h21.3l3.71 10.45c.16.44.58.74 1.05.74h29.38v20.07h-22.25c-.38 0-.65.38-.52.74l1.74 4.89c.11.32.41.53.75.53h20.29V92.1H336.1c-.38 0-.65.38-.52.74l6.86 19.31c1.28 3.59.43 7.53-2.2 10.29-1.89 1.97-5.39 4.11-10.18 2.67-15.32-4.61-29.24-7.43-38.72-7.43s-19.15 3.08-19.15 11.07c0 3.19 3.71 10.56 19.66 10.56h39.09v20.08H303.4zM474.22 35.4l7.14-26.63L448.64 0l-7.14 26.63-25.78-6.91-8.99 33.55 84.28 22.58L500 42.3l-25.78-6.91zm-22.36-19.55c1.39-5.19 6.72-8.26 11.91-6.87 5.19 1.39 8.26 6.72 6.87 11.91-1.39 5.19-6.72 8.26-11.91 6.87-5.19-1.39-8.26-6.72-6.87-11.91z"/><path class="b" d="M458.73 27.76c5.19 1.39 10.52-1.69 11.91-6.87 1.39-5.19-1.69-10.52-6.87-11.91-5.19-1.39-10.52 1.69-11.91 6.87-1.39 5.19 1.69 10.52 6.87 11.91zm3.06-16.34l2.46.66-1.64 6.11 2.44 4.23-2.21 1.27-2.97-5.14 1.91-7.12z"/><path class="c" d="M465.06 22.41l-2.44-4.22 1.63-6.11-2.46-.66-1.91 7.13 2.97 5.14 2.21-1.28zm-336.61 11v-.81c-1.02.5-2.17.68-3.3.68-1.39 0-3.22-.37-4.27-1.36-1.02-.97-1.73-2.28-1.73-3.7 0-3.36 3.15-5.24 6.21-5.24.81 0 1.6.08 2.38.32-.5-1.08-1.34-1.86-2.31-2.52l-1.55-.03-.08-.08 3.72-3.59c6.16 3.8 5.43 7.94 5.43 14.42l1.47.87v.11l-5.98.94zm-2.52-7.21c-1.15 0-2.65.68-2.65 1.99s1.5 2.02 2.65 2.02 2.65-.68 2.65-2.02-1.52-1.99-2.65-1.99z"/><path class="e" d="M147.33 25.52c0-4.19 3.33-7.71 7.55-7.71s7.58 3.51 7.58 7.71-3.28 7.86-7.58 7.86-7.55-3.67-7.55-7.86zm10.62 0c0-1.83-1.13-3.41-3.07-3.41s-3.04 1.57-3.04 3.41 1.13 3.57 3.04 3.57 3.07-1.81 3.07-3.57z"/><path class="c" d="M181.74 34.48l.03-.11 1.47-.65c.52-.66.97-1.55 1.13-2.39-.63.29-1.29.42-1.97.42-3.98 0-7.05-2.7-7.05-6.76s3.07-7.08 7.08-7.08c.87 0 1.73.16 2.52.5v-.84l5.77.52v.11l-1.26 1.05v7.37c0 3.67-.21 6.76-2.39 9.85l-5.32-1.99zm3.25-9.49c0-1.52-.89-3.01-2.57-3.01s-2.67 1.47-2.67 3.01 1.02 3.01 2.67 3.01 2.57-1.49 2.57-3.01z"/><path class="e" d="M204.92 32.96V20.04l-1.36-1.15v-.11l5.87-.58v12.95l1.5 1.15v.11l-6 .55z"/><path class="d" d="M213.51 8.5c-4.07 1.22-5.06 2.21-6.28 6.28-1.22-4.07-2.21-5.06-6.28-6.28 4.07-1.22 5.06-2.21 6.28-6.28 1.22 4.07 2.21 5.06 6.28 6.28z"/><path class="c" d="M223.63 32.75v-.11l1.26-1.07V19.36l-1.29-1.1v-.11l5.79-.52v2.07a9.002 9.002 0 013.99-2.07l1.65 5.19-.08.05-1.49-.73c-1.6.94-2.96 1.97-4.06 3.43v7.73l-5.77-.55z"/><path class="e" d="M248.09 32.96V20.04l-1.36-1.15v-.11l5.87-.58v12.95l1.5 1.15v.11l-6 .55z"/><path class="b" d="M441.75 46.34c1.04-2.82 2.18-6.81 2.18-6.81l-7.73-2.04-6.14-2.17s-1.31 4.61-1.87 6.72c.56.15 9.87 2.85 9.87 2.85l3.7 1.45zm-6.91-7.06l5.52 1.62s-.69 1.79-1 2.83l-5.47-1.68c.34-.86.95-2.77.95-2.77zm31.29 14.76c-.18.69-.77 1.41-1.54 1.8l-1.84-2.99c-.43 1.75-.89 3.56-1.32 5.17-.31 1.15-.63 2.23-.87 3.11l-3.2-.54c.51-1.62 1.5-5.09 2.33-7.65-1.89 1.26-2.99 1.45-4.21 1.13-.89-.24-1.63-.75-1.97-1.06 2.56-1.67 5.1-3.53 6.95-5.18.11-.43.23-.85.37-1.24l-5.24-1.09-.03-2.93c1.32.21 4.01.83 5.74 1.19l1.59-5.94 3.35.9-1.54 5.75c1.29.31 2.46.55 3.34.79l-.1 2.23-3.67-.77-1.42 5.71 2.05-1.35c1.31 1.69 1.37 2.37 1.21 2.97zm-25.56-20.9c3.84 1.17 7.34 2.28 9.21 2.93l-.63 3.14-22.77-6.87 1.45-3.56c1.15.31 3.85 1.14 7.3 2.2l.67-2.36 6.14 1.93c-.33.69-.87 1.67-1.36 2.59zm-12.14 11.53l17.74 4.08-2.17 7.97c-.52 1.8-2.3 2.41-3.88 1.99-1.31-.35-2.49-1.48-2.51-3.24l.95-.13 1.29-5.74-13.04-3.11s-.93 4.4-1.7 7.54l-3.24-.66c.79-3.48 2.39-10.1 2.39-10.1l4.17 1.4zm.63 3.97s-.38 1.27-.75 2.69c-.26.95-.52 1.94-.64 2.64.5.1 5.49 1.33 5.49 1.33l2.18.66.12-.46c.46-1.71 1.15-4.83 1.15-4.83l-3.96-.85-3.59-1.17zm4.8 5.23l-2.51-.64.64-2.4 2.51.64-.64 2.4zm42.18 9.05c1.19 1.09 2.42 2.13 3.58 3.07-.61.68-1.29 1.13-2.6.78-1.31-.35-2.3-1.25-3.26-2.14-.67.38-1.31.67-1.92.86-.8.24-1.75.23-2.67-.01a5.87 5.87 0 01-3.56-2.75c1.64-.72 2.97-1.49 4.21-2.32-.8-.95-1.49-1.81-1.92-2.42l1.99-1.4c.54.74 1.38 1.67 2.4 2.72.95-.8 1.83-1.59 2.78-2.74l3.76 3.44c-.93 1.12-1.87 2.1-2.79 2.91zm6.19-17.6c.76.2 1.41.38 1.9.54l-.52 4.19-14.25-3.19 1.23-4.21c.98.16 2.46.41 3.93.7l.94-3.51 5.58 1.78s-.73 1.67-1.42 3.07c.97.19 1.82.42 2.61.63zm-.48 10.08c-.18.66-.49 1.31-.9 1.77l-5.17-3.43 2.5-3.55c2.8 1.49 4.29 2.52 3.57 5.22zm-14.38-3.99c1.26-.65 3.39-1.73 4.55-2.55l2.03 3.47c-.42.38-2.11 1.19-2.86 1.35-.33.05-.78.04-1.28-.1-.95-.26-1.97-.92-2.45-2.17zm-23.36 5.32c-.52 1.8-2.3 2.41-3.88 1.99-1.31-.35-2.49-1.48-2.51-3.24l.95-.13 1.29-5.74-13.04-3.11s-.93 4.4-1.7 7.54l-3.24-.66c.79-3.48 2.39-10.1 2.39-10.1l4.17 1.4 17.74 4.08-2.17 7.97zm5.15-17.52l-22.77-6.87 1.45-3.56c1.15.31 3.85 1.14 7.3 2.2l.67-2.36 6.14 1.93c-.33.69-.87 1.67-1.36 2.59 3.84 1.17 7.34 2.28 9.21 2.93l-.63 3.14zm15.44 16.63l-1.84-2.99c-.43 1.75-.89 3.56-1.32 5.17-.31 1.15-.63 2.23-.87 3.11l-3.2-.54c.51-1.62 1.5-5.09 2.33-7.65-1.89 1.26-2.99 1.45-4.21 1.13-.89-.24-1.63-.75-1.97-1.06 2.56-1.67 5.1-3.53 6.95-5.18.11-.43.23-.85.37-1.24l-5.24-1.09-.03-2.93c1.32.21 4.01.83 5.74 1.19l1.59-5.94 3.35.9-1.54 5.75c1.29.31 2.46.55 3.34.79l-.1 2.23-3.67-.77-1.42 5.71 2.05-1.35c1.31 1.69 1.37 2.37 1.21 2.97-.18.69-.77 1.41-1.54 1.8zm7.33-6.98l2.03 3.47c-.42.38-2.11 1.19-2.86 1.35-.33.05-.78.04-1.28-.1-.95-.26-1.97-.92-2.45-2.17 1.26-.65 3.39-1.73 4.55-2.55zm5.09 17.91c-1.31-.35-2.3-1.25-3.26-2.14-.67.38-1.31.67-1.92.86-.8.24-1.75.23-2.67-.01a5.87 5.87 0 01-3.56-2.75c1.64-.72 2.97-1.49 4.21-2.32-.8-.95-1.49-1.81-1.92-2.42l1.99-1.4c.54.74 1.38 1.67 2.4 2.72.95-.8 1.83-1.59 2.78-2.74l3.76 3.44c-.93 1.12-1.87 2.1-2.79 2.91 1.19 1.09 2.42 2.13 3.58 3.07-.61.68-1.29 1.13-2.6.78zm4.74-11.37c-.18.66-.49 1.31-.9 1.77l-5.17-3.43 2.5-3.55c2.8 1.49 4.29 2.52 3.57 5.22zm1.86-5.35l-14.25-3.19 1.23-4.21c.98.16 2.46.41 3.93.7l.94-3.51 5.58 1.78s-.73 1.67-1.42 3.07c.97.19 1.82.42 2.61.63.76.2 1.41.38 1.9.54l-.52 4.19zm-50.95-.24l-3.59-1.17s-.38 1.27-.75 2.69c-.26.95-.52 1.94-.64 2.64.5.1 5.49 1.33 5.49 1.33l2.18.66.12-.46c.46-1.71 1.15-4.83 1.15-4.83l-3.96-.85zm1.2 4.05l-2.51-.64.64-2.4 2.51.64-.64 2.4zm2.35-16.38l-6.14-2.17s-1.31 4.61-1.87 6.72c.56.15 9.87 2.85 9.87 2.85l3.7 1.45c1.04-2.82 2.18-6.81 2.18-6.81l-7.73-2.04zm3.15 6.23l-5.47-1.68c.34-.86.95-2.77.95-2.77l5.52 1.62s-.69 1.79-1 2.83z"/></svg>