<svg width="67" height="20" fill="none" xmlns="http://www.w3.org/2000/svg"><path d="M17.058 11.463c-.265 4.703-3.852 8.313-8.529 8.529C3.824 20.209 0 16.173 0 11.462c0-4.71 3.577-8.12 8.53-8.528 4.694-.387 8.803 3.661 8.528 8.529zm2.925-9.081c-.046 1.31-1.066 2.465-2.374 2.374-1.308-.092-2.374-1.063-2.374-2.374 0-1.311 1.068-2.26 2.374-2.374 1.306-.114 2.42 1.064 2.374 2.374zm6.984 12.276h-.322c-.02 0-.032-.002-.035-.002h-.001a.12.12 0 0 1-.005-.039V12.87a.187.187 0 0 1 .025-.001h.5c.544 0 .797.264.797.83 0 .676-.133.959-.959.959zm-.362-5.839c0-.008.018-.009.024-.009h.5c.435 0 .717.32.717.814 0 .684-.254.976-.846.976h-.371l-.024-.001v-1.78zm3.766 2.776c-.067-.034-.078-.054-.079-.054 0-.021 0-.042.14-.125.563-.37 1.068-.828 1.068-2.339 0-1.89-1.395-2.89-4.033-2.89h-4.268a.272.272 0 0 0-.281.281v10.629c0 .163.118.281.28.281h4.639c1.88 0 3.888-.819 3.888-3.115 0-1.895-.877-2.396-1.354-2.668zM43.71 6.194a.136.136 0 0 0-.136.136v8.848c0 1.571.944 2.368 2.804 2.368.37 0 .717-.028 1.025-.08V6.33a.136.136 0 0 0-.136-.136h-3.556zm-5.8 8.983c-.07.024-.197.049-.433.049-.427 0-.735 0-.735-.82 0-.755.284-.786.986-.786l.182.002v1.555zm-.131-7.181c-1.155 0-3.073.151-3.729.341-.144.048-.211.186-.182.355l.118 2.166c.01.057.067.237.39.183.503-.079 1.744-.2 2.363-.2 1.002 0 1.172.082 1.172.266v.48l-1.69.218c-2.432.316-2.991.859-2.991 2.903 0 2.428 1.372 2.838 4.448 2.838 1.205 0 2.812-.098 3.706-.373a.424.424 0 0 0 .236-.146c.055-.062.118-6.6 0-7.068-.333-1.31-1.56-1.963-3.841-1.963zm25.771 0c-1.765 0-3.793.33-3.793 2.904 0 1.27.406 1.886 1.739 2.638 1.155.65 1.28.758 1.28.902 0 .21 0 .249-.55.249-.625 0-1.724-.151-2.253-.25a.136.136 0 0 0-.162.134v2.584c0 .065.045.121.108.134a15.79 15.79 0 0 0 2.843.255c2.081 0 4.113-.227 4.113-2.938 0-1.223-.271-1.778-1.874-2.655-1.133-.623-1.213-.676-1.213-.817 0-.11 0-.166.702-.166.296 0 1.208.081 1.886.201.128.021.18-.024.182-.148l.053-2.604a.135.135 0 0 0-.11-.136c-.751-.13-2.162-.287-2.95-.287zm-9.186.492a.136.136 0 0 0-.136.136l.008 5.838s-.005.005-.022.012c-.184.03-.332.066-.54.076-.507.025-.71-.225-.71-.731V8.624a.136.136 0 0 0-.136-.136h-3.353a.136.136 0 0 0-.136.136v5.312c0 2.53 1.295 3.61 4.33 3.61 1.58 0 4.197-.358 4.197-.358V8.624a.136.136 0 0 0-.136-.136h-3.366z" fill="#fff"/></svg>