<svg xmlns="http://www.w3.org/2000/svg" viewBox="0 0 1000 1000"><g><path d="m643.5,338.3l-143.5-59.5-143.5,59.5-59.5,143.5,59.5,143.5,143.5,59.5,143.5-59.5,59.5-143.5-59.5-143.5Zm-242.3-.5v26.8h-30.7c9.1-10.1,19.4-19.1,30.7-26.8Zm-33.5,30.1h57.2l-75,73.2.2.2,51.2-30.6v69.6l28.2-10.2v-57.4l-11.1-12.2,6.1-3.7,26.9,29.6,23.1-16.7-47.5-14.3,47.6-28.4-34-14.2-11,10.7v-24.1l-19.6-7.1c26.3-15.9,57.2-25.1,90.2-25.1s86,17,117,45l-27.5,9.9h-24.7s0-22.2,0-22.2l-29.6-10.7v33h-27.6l-29.6-10.7v93.7l29.6-10.7h27.6v45.9l29.6-10.7v-35.1h27.6v10.7l29.6-10.7v-77.4c32.4,31.7,52.6,75.9,52.6,124.8s-9.5,65-26,91.7l-54.5-27.8h49.1l-27.7-16.5-15.2,13.2h-12.7l-34.4-17.6h65l-26.9-16-14.6,12.7h-35.4l10.1-17.6h81.7l-27.7-16.5-15.2,13.2h-37l5.2-9.2-31.6-11.1-8.4,20.3h-50.6l4.4,3.3h44.9l-7.3,17.6h-36.5l4.4,3.3h29.7l-17.7,17.6h-23.1l-37.4-11.3v-12.6h42.7l-26.9-16-14.6,12.7h-1.2v-24.7l-28.2-10.2v34.9h-41.9l4.4,3.3h34.9l-41.4,63.9c-20-28.4-31.8-63.1-31.8-100.5s16-83.4,42.4-113.9Zm224.7,63.3h-27.6v-31.2h27.6v31.2Zm-84.8-65.7h27.6v31.2h-27.6v-31.2Zm0,34.5h27.6v31.2h-27.6v-31.2Zm84.8-3.3h-27.6v-31.2h27.6v31.2Zm-77,149h56.2l13.6,12.7-20.8,7.5h-47.9s-21.5-7.8-21.5-7.8l20.5-12.4Zm24.2-20.9h9.6l18.9,17.6h-47.2l13.4-8.1,5.4-9.5Zm27.7,65.3h-50.9v-21h50.9v21Zm-50.9,3.3h50.9v24h-50.9v-24Zm-156.6-7.5l41.5-33.9v73.9c-15.9-11-30-24.5-41.5-40Zm46.9,43.5l22.7-8.2v-83.5l20.7,22.8,20.6-14.9h15.8l-44.6,44.3.2.2,44.6-27.1v68.3l29.6-10.7h50.9l25.4,9.2c-26.9,16.8-58.6,26.6-92.6,26.6s-66.3-9.9-93.3-27Zm190.2-2.3v-57.8l20,18.7,9.6-7.7,19.4-2.8c-12.9,19.6-29.6,36.5-49.1,49.6Z"/></g></svg>