<?xml version="1.0" encoding="utf-8"?>
<!-- Generator: Adobe Illustrator 26.0.3, SVG Export Plug-In . SVG Version: 6.00 Build 0)  -->
<svg version="1.1" id="レイヤー_1" xmlns="http://www.w3.org/2000/svg" xmlns:xlink="http://www.w3.org/1999/xlink" x="0px"
	 y="0px" viewBox="0 0 867.7 187.5" style="enable-background:new 0 0 867.7 187.5;" xml:space="preserve">
<style type="text/css">
	.st0{fill:#040000;}
</style>
<g>
	<g>
		<path class="st0" d="M160.8,185.7H8.4V1.8h152.4V185.7z M44.4,149.5v36.2l39.1-36.2h41.3V38H44.4V149.5z"/>
	</g>
	<g>
		<path class="st0" d="M402.6,177.1c0,0.4-0.2,0.7-0.6,0.8c-0.7,0.1-2.8,0.1-3.4,0c-0.4-0.1-0.6-0.4-0.6-0.8
			c0.1-2.2,0.2-6.1,0.2-6.6c0-0.3-0.3-0.5-0.6-0.3c-2.4,1.3-5.1,2.4-7,2.8c-0.4,0.1-0.8,0-1.1-0.3c-0.5-0.5-1.4-2-1.6-2.8
			c-0.1-0.4,0.1-0.8,0.5-0.9c2.6-0.6,5.7-1.5,8.3-3c1.6-0.9,3.2-1.9,4.6-3.2c0.3-0.3,0.2-0.7-0.3-0.7c-1.6,0-1.6,0-4.3,0.1
			c-1.9,0-3.3,0.1-4.7,0.2c-0.4,0-0.7-0.2-0.8-0.6c-0.2-0.7-0.2-2.4-0.1-3c0.1-0.4,0.4-0.6,0.8-0.6c5.4,0.2,10.5,0,14.2-0.1
			c0.5,0,1.1,0.3,1.5,0.6c0.3,0.3,0.7,1,0.8,1.3c0.2,0.6,0.2,1.2-0.1,1.6c-1.2,1.5-3,3.3-5.3,5.1c-0.3,0.3-0.5,0.6-0.5,1
			C402.4,170.6,402.4,170.6,402.6,177.1z M395.3,156.5c-0.4,0-0.7-0.2-0.8-0.6c-0.1-0.8-0.1-2.2-0.1-2.9c0-0.4,0.4-0.6,0.8-0.6
			c2.5,0.1,3.9,0.2,4.7,0.2c0.9,0,2.3-0.1,4.6-0.2c0.4,0,0.7,0.2,0.7,0.6c0.1,0.8,0.1,2.3,0,2.9c-0.1,0.4-0.4,0.6-0.7,0.6
			C402.6,156.4,397.2,156.4,395.3,156.5z M412,169.7c0.3,0.4,0.3,0.6,0.1,1c-0.5,0.7-1.6,1.8-2.3,2.3c-0.3,0.2-0.7,0.2-1-0.1
			c-0.6-0.7-1.9-2.1-4.5-4.3c-0.3-0.2-0.3-0.6-0.1-0.9c0.4-0.6,1.7-1.7,2.1-2c0.3-0.2,0.5-0.2,0.8-0.1
			C407.9,165.9,411.1,168.6,412,169.7z"/>
		<path class="st0" d="M455.1,170.3c-1.3,1.3-3.5,2.9-5,3.5c-0.4,0.1-0.7,0.1-1.1-0.1c-0.8-0.4-2-1.7-2.4-2.4
			c-0.2-0.4-0.1-0.9,0.3-1.1c1.7-0.9,3.5-1.9,5-3.2c1.4-1.1,2.4-2.2,3.3-3.4c0.3-0.3,0.8-0.4,1.1-0.2c0.7,0.3,1.6,1,2.2,1.6
			c0.2,0.2,0.2,0.6,0.1,1C458.2,166.8,457.1,168.3,455.1,170.3z M470.7,162.6c-0.1,0.4-0.4,0.5-0.8,0.5c-0.6,0-2.8-0.1-5.1-0.1
			c-0.4,0-0.6,0.2-0.6,0.6c-0.1,1.5,0.3,5.9,0.1,7.7c-0.2,2.2-0.7,3.8-2.8,4.9c-1.3,0.7-3.2,0.9-5,0.3c-0.4-0.1-0.7-0.4-0.9-0.8
			c-0.5-0.8-0.8-2.5-0.7-3.3c0.1-0.4,0.4-0.7,0.9-0.6c1.4,0.4,2.6,0.4,3.3-0.3c0.7-0.8,0.7-2.1,0.7-3.1c0-1.7,0-2.7-0.1-5.1
			c0-0.3-0.3-0.5-0.5-0.5c-5-0.1-7.6,0.1-10.6,0.2c-0.4,0-0.7-0.2-0.8-0.5c-0.2-0.8-0.3-2.7-0.2-3.6c0.1-0.4,0.4-0.6,0.8-0.6
			c3.3,0.1,5.6,0.2,10.3,0.2c0.4,0,0.6-0.3,0.6-0.6c0-2-0.4-3.5-0.4-4c0-0.4,0.3-0.7,0.7-0.8c0.6-0.1,3.1,0,3.8,0.2
			c0.3,0.1,0.6,0.4,0.6,0.7c0.1,0.9,0,2.9,0.1,3.9c0,0.4,0.3,0.6,0.6,0.6c2.4,0,4.4-0.1,5.2-0.1c0.4,0,0.7,0.2,0.8,0.5
			C470.9,160,470.9,161.8,470.7,162.6z"/>
		<path class="st0" d="M513.3,166.1c0.3,0.2,0.3,0.6,0.2,0.9c-0.3,0.7-1.2,2-2.4,3.3c-0.8,0.9-2.2,2.2-3.1,2.7
			c-0.4,0.2-0.8,0.2-1.1,0.1c-0.7-0.4-2-1.8-2.3-2.4c-0.2-0.4-0.1-0.7,0.2-1c2-1.4,3.4-2.4,5-4.8c0.2-0.3,0.6-0.4,1-0.3
			C511.5,164.9,512.8,165.7,513.3,166.1z M520,169.4c0,2.2-0.1,4.1-1,5.3c-1.3,1.8-4.2,2.4-6.3,1.6c-0.4-0.1-0.6-0.4-0.8-0.8
			c-0.3-0.7-0.6-2.4-0.5-3.1c0.1-0.6,0.6-0.8,0.9-0.7c1.4,0.5,2.9,0.5,3-1.3c0.1-1.5,0.1-4.4,0.1-6.3c0-0.4-0.3-0.6-0.7-0.6
			c-4.3,0-3,0.2-8.1,0.2c-0.4,0-0.7-0.3-0.7-0.6c-0.1-0.8-0.2-2.5,0-3.2c0.1-0.4,0.4-0.6,0.7-0.6c3.3,0,2.4,0.1,8,0.2
			c0.4,0,0.7-0.3,0.6-0.6c0-1.1-0.1-2.3-0.1-3.8c0-0.4,0.3-0.7,0.6-0.7c1.1-0.1,2.8,0,3.8,0.1c0.4,0,0.6,0.4,0.6,0.7
			c0,0.7-0.1,1.6-0.1,3.7c0,0.4,0.3,0.6,0.6,0.6c4,0,2.8-0.2,7.7-0.2c0.4,0,0.7,0.3,0.8,0.6c0.1,0.8,0.1,2.3,0,3.2
			c-0.1,0.4-0.4,0.6-0.8,0.6c-4,0-2.1-0.1-7.8-0.1c-0.4,0-0.6,0.2-0.6,0.6C520,165.5,520,167,520,169.4z M527.2,167.2
			c0.9,1,2.2,2,2.6,2.4c0.3,0.2,0.3,0.6,0.1,1c-0.4,0.7-1.6,1.9-2.3,2.3c-0.4,0.2-0.8,0.1-1.2-0.1c-0.5-0.4-1.5-1.4-2.4-2.4
			c-0.9-0.9-2.1-2.5-2.4-3c-0.1-0.3-0.2-0.6,0-0.9c0.4-0.6,1.6-1.6,2.1-1.9c0.3-0.2,0.7-0.2,0.9,0.1
			C525.1,165.1,526.5,166.4,527.2,167.2z M527,158.2c1.5,0,2.8-1.3,2.8-2.8c0-1.5-1.3-2.8-2.8-2.8c-1.5,0-2.8,1.3-2.8,2.8
			C524.2,156.9,525.5,158.2,527,158.2z M527,156.8c-0.7,0-1.3-0.6-1.3-1.3c0-0.7,0.6-1.3,1.3-1.3c0.7,0,1.3,0.6,1.3,1.3
			C528.3,156.2,527.7,156.8,527,156.8z"/>
		<path class="st0" d="M572.3,156.5c0.4,0.1,0.6,0.4,0.6,0.7c0,1.5-0.2,5.3-0.3,6.1c-0.1,1.7-0.4,3.2-0.8,4.7c-0.9,3-2.7,6.1-6,7.7
			c-0.4,0.2-0.8,0.2-1.3,0c-0.9-0.4-2.4-1.5-2.7-2.1c-0.2-0.4-0.2-0.9,0.2-1.1c3.2-1.7,4.8-3.5,5.5-7c0.1-0.7,0.3-1.5,0.4-2.4
			c0.2-2,0.1-3.8-0.1-5.7c0-0.4,0.2-0.7,0.6-0.8C569.4,156.2,571.5,156.2,572.3,156.5z M589.4,164.9c0.2,0.4,0.2,0.8,0,1.2
			c-0.9,2-3.4,4.4-5.6,5.9c-2.3,1.5-5.2,2.5-7.6,2.5c-0.6,0-1.2-0.5-1.1-1.1c0-1.3,0.3-6.4,0.3-10.6c0-2.6-0.1-5.6-0.1-6.5
			c0-0.4,0.3-0.6,0.6-0.7c0.8-0.2,2.9-0.3,3.8,0c0.4,0.1,0.6,0.4,0.6,0.8c0,0.9-0.1,3.9-0.2,6.5c-0.1,2.6-0.1,3.9-0.1,4.9
			c0,0.5,0.4,0.6,0.7,0.5c2-0.7,4.3-3.2,5.6-5.7c0.2-0.4,0.8-0.5,1.1-0.3C588.2,162.9,589.2,164.2,589.4,164.9z"/>
		<path class="st0" d="M645.8,164.8c-0.1,0.4-0.4,0.6-0.7,0.6c-4,0-3.4-0.2-7-0.2c-0.3,0-0.6,0.2-0.6,0.5c-0.2,2.6-0.6,4.7-1.9,6.8
			c-1.9,3-4.9,4.7-7.7,5.1c-0.4,0.1-0.8,0-1.1-0.2c-0.8-0.6-1.8-2.1-2.1-2.8c-0.2-0.4,0-0.9,0.4-1c2.5-0.3,5.1-1.3,6.5-4.1
			c0.6-1.2,0.8-2.7,0.9-3.8c0-0.4-0.3-0.6-0.6-0.6c-2.8,0-5.4,0.2-8.1,0.2c-0.3,0-0.7-0.2-0.7-0.6c-0.1-0.6-0.2-2.6-0.1-3.3
			c0.1-0.4,0.4-0.6,0.7-0.6c5.3,0,3.4,0,10.7,0c2.2,0,7.2,0,10.6,0c0.4,0,0.7,0.3,0.8,0.7C645.9,162.3,646,163.9,645.8,164.8z
			 M627.4,158.5c-0.4,0-0.7-0.2-0.7-0.5c-0.1-0.9-0.1-2.5-0.1-3.3c0-0.4,0.3-0.6,0.7-0.6c2.6,0.2,4.8,0.2,7.3,0.2
			c5.8,0,4.4-0.2,7.2-0.2c0.4,0,0.7,0.2,0.7,0.6c0.1,0.7,0.1,2.5,0,3.3c0,0.4-0.4,0.5-0.7,0.5h-7.2
			C631.5,158.5,628.6,158.5,627.4,158.5z"/>
	</g>
	<g>
		<path class="st0" d="M200.7,125.8c4.4-1.9,7-5.2,7-11V44.6c0-5.8-2.6-9.1-7-11v-0.3h28.7l41.4,63.3v-52c0-5.8-2.6-9.1-7-11v-0.3
			h33.4v0.3c-4.4,1.9-7,5.2-7,11v70.2c0,5.8,2.6,9.1,7,11v0.3h-28.7L227,62.5v52.3c0,5.8,2.6,9.1,7,11v0.3h-33.4V125.8z"/>
		<path class="st0" d="M365.6,100.2h-48.3c2.5,7.8,10.2,11.8,19.9,11.8c8.9,0,19.3-2.8,27.1-10.1l0.4,0.3l-7.5,24.8
			c-1.3-1.2-2.5-1.5-4-1.5c-3.7,0-9,2.3-19.3,2.3c-18.1,0-35.6-11.7-35.6-34.3c0-20.4,13.4-35.4,34.2-35.4c21.8,0,33.6,15,33.6,34.3
			C366,94.9,365.9,98.1,365.6,100.2z M347.8,86.6C346.4,79,339.9,74,332.4,74c-7.4,0-12.8,4.5-15,12.6H347.8z"/>
		<path class="st0" d="M371.2,92.9c0-20.7,14.8-34.8,35.5-34.8c20.4,0,35.2,14.2,35.2,34.8s-14.8,34.8-35.2,34.8
			C386,127.8,371.2,113.6,371.2,92.9z M422.9,92.9c0-10.7-6.8-18.1-16.2-18.1c-9.6,0-16.4,7.4-16.4,18.1s6.8,18.1,16.4,18.1
			C416.1,111.1,422.9,103.7,422.9,92.9z"/>
		<path class="st0" d="M591.1,92.9c0-20.7,14.8-34.8,35.5-34.8c20.4,0,35.2,14.2,35.2,34.8s-14.8,34.8-35.2,34.8
			C605.9,127.8,591.1,113.6,591.1,92.9z M642.8,92.9c0-10.7-6.8-18.1-16.2-18.1c-9.6,0-16.4,7.4-16.4,18.1s6.8,18.1,16.4,18.1
			C636.1,111.1,642.8,103.7,642.8,92.9z"/>
		<path class="st0" d="M451,79h50.7v18.3H451V79z"/>
		<path class="st0" d="M591.1,64.6c0,17.3-13.2,31.4-32.8,31.4h-25.7v18.8c0,5.8,2.6,9.1,7,11v0.3h-34.3v-0.3c4.4-1.9,7-5.2,7-11
			V44.6c0-5.8-2.6-9.1-7-11v-0.3h53C577.9,33.3,591.1,47.4,591.1,64.6z M570.6,64.6c0-6.4-4.4-13.2-14.8-13.2h-23.3V78h23.3
			C566.2,78,570.6,71.1,570.6,64.6z"/>
		<path class="st0" d="M721.5,77.4c0,4.8-1.5,10.3-5,15.5l-0.5-0.1c0.1-10.7-6.9-16.3-14.2-16.3c-6.2,0-11,3.8-13.5,9.1l0.1,29.7
			c0,5,1.9,8.6,6.2,10.5v0.3h-31.8v-0.3c4.2-1.9,6.1-5.4,6.1-10.5l-0.1-44.8c0-5-1.9-8.6-6.1-10.5v-0.3c3.6-1.3,6.8-1.7,9.7-1.7
			c6.9,0,12.3,2.9,14.6,8.2c3.8-4.9,9.4-8.2,16.2-8.2C714.1,58.1,721.5,66.6,721.5,77.4z"/>
		<path class="st0" d="M787.2,108.3c0,12.1-9,20.6-24.1,20.6c-16.2,0-28.1-10.1-28.1-26.3v-23h-10.3V63.2c18.8,0,16.7-4.9,16.7-21
			h12.6v20.7h15.9c5,0,8.7-1.6,10.5-5.4h0.3v27.6h-0.3c-1.7-3.8-5.4-5.4-10.5-5.4h-16.6v20.2c0,7.2,4.2,13.6,12.8,13.6
			c9.1,0,17.8-7.8,17.1-18.1l0.4-0.1C786.4,99.8,787.2,104.5,787.2,108.3z"/>
		<path class="st0" d="M858.9,100.2h-48.3c2.5,7.8,10.2,11.8,19.9,11.8c8.9,0,19.3-2.8,27.1-10.1l0.4,0.3l-7.5,24.8
			c-1.3-1.2-2.5-1.5-4-1.5c-3.7,0-9,2.3-19.3,2.3c-18.1,0-35.6-11.7-35.6-34.3c0-20.4,13.4-35.4,34.2-35.4c21.8,0,33.6,15,33.6,34.3
			C859.3,94.9,859.2,98.1,858.9,100.2z M841.1,86.6C839.7,79,833.3,74,825.7,74c-7.4,0-12.8,4.5-15,12.6H841.1z"/>
	</g>
</g>
</svg>
