<svg width="135" height="34" viewBox="0 0 135 34" fill="none" xmlns="http://www.w3.org/2000/svg">
<path d="M17.9199 0V2.24C19.6849 2.24 21.4326 2.58763 23.0632 3.26306C24.6938 3.93848 26.1754 4.92846 27.4234 6.17648C28.6715 7.4245 29.6614 8.90612 30.3369 10.5367C31.0123 12.1674 31.3599 13.915 31.3599 15.68H33.5999C33.5999 13.6209 33.1944 11.5819 32.4064 9.67952C31.6184 7.77714 30.4634 6.04859 29.0074 4.59256C27.5513 3.13654 25.8228 1.98156 23.9204 1.19357C22.018 0.405575 19.979 0 17.9199 0Z" fill="#DB062C"/>
<path d="M17.9199 2.23999V4.47999C20.8903 4.47999 23.7391 5.65999 25.8395 7.7604C27.9399 9.8608 29.1199 12.7096 29.1199 15.68H31.3599C31.3599 12.1155 29.9439 8.69696 27.4234 6.17648C24.903 3.65599 21.4844 2.23999 17.9199 2.23999Z" fill="#EE7A00"/>
<path d="M17.9199 4.48005V6.72005C20.3069 6.72005 22.5961 7.66826 24.2839 9.35609C25.9717 11.0439 26.9199 13.3331 26.9199 15.7201H29.1599C29.1652 14.2425 28.8781 12.7785 28.3151 11.4124C27.7521 10.0464 26.9244 8.80517 25.8796 7.76038C24.8348 6.7156 23.5936 5.88787 22.2275 5.32488C20.8614 4.76189 19.3975 4.47477 17.9199 4.48005Z" fill="#F2EA1A"/>
<path d="M17.9199 6.71997V8.95997C18.8024 8.95997 19.6762 9.13379 20.4916 9.4715C21.3069 9.80921 22.0477 10.3042 22.6717 10.9282C23.2957 11.5522 23.7907 12.293 24.1284 13.1083C24.4661 13.9236 24.6399 14.7975 24.6399 15.68H26.8799C26.8694 13.3069 25.922 11.034 24.244 9.35592C22.5659 7.67787 20.293 6.73049 17.9199 6.71997Z" fill="#009B4D"/>
<path d="M17.9199 8.95996V11.2C19.1081 11.2 20.2476 11.672 21.0878 12.5121C21.9279 13.3523 22.3999 14.4918 22.3999 15.68H24.6399C24.6399 13.8977 23.9319 12.1884 22.6717 10.9282C21.4114 9.66796 19.7022 8.95996 17.9199 8.95996Z" fill="#4EC1F0"/>
<path d="M17.9199 11.2V13.4399C18.514 13.4399 19.0838 13.6759 19.5038 14.096C19.9239 14.5161 20.1599 15.0859 20.1599 15.68H22.3999C22.3999 14.4918 21.9279 13.3523 21.0878 12.5121C20.2476 11.6719 19.1081 11.2 17.9199 11.2Z" fill="#0065B1"/>
<path d="M17.9199 13.4399V15.6799H20.1599C20.1599 15.0859 19.9239 14.5161 19.5038 14.096C19.0838 13.6759 18.514 13.4399 17.9199 13.4399Z" fill="#633790"/>
<path d="M15.68 2.24C12.8079 2.23753 9.99024 3.02451 7.53504 4.51496C5.07984 6.0054 3.08151 8.14197 1.75837 10.6912C0.435236 13.2405 -0.161807 16.1044 0.0324794 18.97C0.226766 21.8356 1.20491 24.5927 2.86003 26.94L3.15681e-05 33.6L6.66003 30.74C9.00945 32.3966 11.7693 33.375 14.6375 33.5681C17.5058 33.7612 20.3719 33.1615 22.9222 31.8348C25.4724 30.508 27.6086 28.5053 29.0968 26.0458C30.585 23.5863 31.368 20.7647 31.36 17.89H15.68V2.24ZM8.54003 17.36C7.88888 17.3604 7.24599 17.2142 6.65899 16.9324C6.07199 16.6506 5.55593 16.2403 5.14905 15.7319C4.74217 15.2235 4.45491 14.6301 4.30853 13.9956C4.16215 13.3611 4.16043 12.7018 4.30347 12.0666C4.44652 11.4313 4.73067 10.8364 5.13488 10.3259C5.53908 9.81541 6.05298 9.4024 6.63849 9.11749C7.22401 8.83258 7.86613 8.68307 8.51727 8.68004C9.16842 8.67702 9.8119 8.82054 10.4 9.1C9.94409 9.09921 9.49751 9.2294 9.11342 9.47509C8.72933 9.72078 8.4239 10.0716 8.23346 10.4859C8.04302 10.9002 7.97558 11.3604 8.03917 11.8119C8.10275 12.2634 8.29469 12.6871 8.59214 13.0327C8.8896 13.3782 9.28006 13.6311 9.71706 13.7611C10.1541 13.8912 10.6192 13.893 11.0572 13.7663C11.4952 13.6396 11.8876 13.3897 12.1877 13.0465C12.4878 12.7032 12.683 12.281 12.75 11.83C12.8624 12.2167 12.9196 12.6173 12.92 13.02C12.9201 13.5933 12.8065 14.161 12.5859 14.6901C12.3653 15.2193 12.042 15.6995 11.6348 16.1031C11.2275 16.5066 10.7443 16.8255 10.2132 17.0412C9.68198 17.2569 9.11333 17.3653 8.54003 17.36Z" fill="#2D4B70"/>
<path d="M10.36 13.89C9.72882 13.89 9.12346 13.6393 8.67712 13.193C8.23078 12.7466 7.98003 12.1413 7.98003 11.51C7.98003 10.8788 8.23078 10.2735 8.67712 9.82713C9.12346 9.38079 9.72882 9.13005 10.36 9.13005C9.46007 8.69978 8.43977 8.59114 7.46938 8.82223C6.49898 9.05332 5.63718 9.61019 5.02775 10.3999C4.41831 11.1896 4.09811 12.1644 4.12055 13.1617C4.143 14.159 4.50674 15.1184 5.15108 15.8799C5.79543 16.6414 6.68142 17.1589 7.66122 17.3462C8.64103 17.5334 9.6554 17.3789 10.5351 16.9086C11.4148 16.4383 12.1066 15.6805 12.4951 14.7618C12.8837 13.843 12.9454 12.8188 12.67 11.86C12.5892 12.4178 12.3123 12.9285 11.889 13.3006C11.4656 13.6726 10.9236 13.8816 10.36 13.89Z" fill="white"/>
<path d="M57.88 7.21997H45.83V12.01H57.88V7.21997Z" fill="#0065B1"/>
<path d="M51.5501 27.57H57.8801V22.78H51.8801C50.0701 22.78 49.4701 22.19 49.4701 20.39V18H44.6201V20.69C44.6201 25.78 47.6301 27.57 51.5501 27.57Z" fill="#0065B1"/>
<path d="M43.42 6.02002H38.6V27.57H43.42V6.02002Z" fill="#0065B1"/>
<path d="M69.62 7.82007H64.8V16.8001H69.62V7.82007Z" fill="#4EC1F0"/>
<path d="M75.35 7.82007H70.53V16.8001H75.35V7.82007Z" fill="#4EC1F0"/>
<path d="M66.01 27.57H75.35V22.78H66.35C64.54 22.78 63.94 22.19 63.94 20.39V6.02002H59.07V20.69C59.07 25.78 62.07 27.57 66.01 27.57Z" fill="#4EC1F0"/>
<path d="M86.19 13.8C86.19 15.6 85.59 16.2 83.78 16.2V20.99H84.08C89.2 20.99 91.01 17.99 91.01 14.1V12.01H93.4201V7.22002H91.01V6.02002H86.19V7.22002H76.55V12.01H86.19V13.8Z" fill="#009B4D"/>
<path d="M83.48 27.57H93.4201V22.78H83.78C81.97 22.78 81.37 22.19 81.37 20.39V16.8H76.55V20.69C76.55 25.78 79.56 27.57 83.48 27.57Z" fill="#009B4D"/>
<path d="M112.7 20.99C112.7 21.4701 112.509 21.9304 112.17 22.2699C111.831 22.6093 111.37 22.8 110.89 22.8C110.41 22.8 109.95 22.6093 109.61 22.2699C109.271 21.9304 109.08 21.4701 109.08 20.99V16.2C109.08 12.61 106.67 10.81 103.08 10.81H101.87C101.051 10.7545 100.23 10.8738 99.4601 11.16V6.02002H94.6501V27.57H99.4601V17.99C99.4601 16.2 100.07 15.6 101.87 15.6C103.67 15.6 104.28 16.2 104.28 17.99V22.19C104.28 25.7834 106.09 27.5767 109.71 27.57H112.07C115.677 27.57 117.483 25.7767 117.49 22.19V20.39H112.67L112.7 20.99Z" fill="#EE7A00"/>
<path d="M128.66 7.82007H123.84V16.8001H128.66V7.82007Z" fill="#DB062C"/>
<path d="M134.38 7.82007H129.56V16.8001H134.38V7.82007Z" fill="#DB062C"/>
<path d="M122.94 20.39V6.02002H118.12V20.69C118.12 25.78 121.12 27.57 125.05 27.57H134.39V22.78H125.39C123.54 22.78 122.94 22.19 122.94 20.39Z" fill="#DB062C"/>
</svg>
