<svg xmlns="http://www.w3.org/2000/svg" viewBox="0 0 297.64 85.35"><defs><linearGradient id="a" y1="42.67" x2="139.58" y2="42.67" gradientUnits="userSpaceOnUse"><stop offset="0" stop-color="#ff3c3c"/><stop offset="1" stop-color="#ffaa08"/></linearGradient></defs><g data-name="レイヤー 2"><path d="M161.25 56.15v29.2h-9.94V33.21a24.75 24.75 0 0 1 1.69-8.95 23.23 23.23 0 0 1 4.78-7.64Q164.89 9 176.53 9t18.77 7.66a23.23 23.23 0 0 1 4.78 7.64 24.75 24.75 0 0 1 1.67 9v52.05h-9.94v-29.2zm30.56-22.94a14.79 14.79 0 0 0-4.47-10.84 15.27 15.27 0 0 0-21.63 0 14.82 14.82 0 0 0-4.46 10.84v14h30.56zm45.3 8.53a17.55 17.55 0 0 0-17.56 17.56 17.55 17.55 0 0 0 17.56 17.61h7.08v8.44h-7.08A27.83 27.83 0 0 1 218 77.83a24.47 24.47 0 0 1-7.91-18.53A24.64 24.64 0 0 1 218 40.72a26.84 26.84 0 0 1 19.11-7.42h7.08v8.44zm31.33 43.61V18.61h-19.26V10h48.46v8.64h-19.26v66.71z" fill="#333"/><path d="M68.55 81.49c.7.7 1.43 1.37 2.16 2a71.42 71.42 0 0 1-10.53 1.45c-2.86.21-6.31.31-7.9.29l-3.91-.06c-1 0-2.25-.11-3.17-.2a24.27 24.27 0 0 1-15.46-7.25 25 25 0 0 1-7.33-18.36V52.8a8.13 8.13 0 0 1 8-8 13.89 13.89 0 0 0 10.19-4.23 13.9 13.9 0 0 0 4.23-10.2 13.7 13.7 0 0 0-4.23-10.13 14 14 0 0 0-10.2-4.15 14.24 14.24 0 0 0-14.31 14.3v46.73a7.71 7.71 0 0 1-2.26 5.78A8 8 0 0 1 8 85.11a7.75 7.75 0 0 1-8-8V30.39A29.39 29.39 0 0 1 8.76 8.76 29.39 29.39 0 0 1 30.4 0a29.59 29.59 0 0 1 21.69 8.76 29.28 29.28 0 0 1 8.82 21.63 29.61 29.61 0 0 1-6.2 18.48 30.32 30.32 0 0 1-16.21 11 9.16 9.16 0 0 0 2.86 6.49A9.51 9.51 0 0 0 47.79 69c.46 0 .9.08 1.37.1a90.9 90.9 0 0 0 11.08-.34 36.54 36.54 0 0 0 8.31 12.73zm26.63-57a29.92 29.92 0 0 0-30.4 30.39 29.59 29.59 0 0 0 8.76 21.69 29.28 29.28 0 0 0 21.64 8.83h10.61a7.71 7.71 0 0 0 5.78-2.27 8 8 0 0 0 2.2-5.84 7.57 7.57 0 0 0-8-8H95.18A13.68 13.68 0 0 1 85.05 65a13.94 13.94 0 0 1-4.17-10.19 14.24 14.24 0 0 1 14.3-14.3 21.67 21.67 0 0 1 3.1.23l-8.58 8.49a7.86 7.86 0 0 0-2.63 5.6 8.1 8.1 0 0 0 2.45 5.84 7.78 7.78 0 0 0 5.78 2.5 8 8 0 0 0 5.6-2.5l15.26-14.9a7.94 7.94 0 0 0 3.45-6.55 7.81 7.81 0 0 0-2.38-5.49 29.61 29.61 0 0 0-22.05-9.29zm36.35 44.68a8 8 0 1 0 8.05 8 8 8 0 0 0-8.05-8.05zm0-7.37a8 8 0 1 0-8-8 8 8 0 0 0 8 7.95z" fill="url(#a)"/></g></svg>