<svg xmlns="http://www.w3.org/2000/svg" width="246" height="64"><defs><style>.e{fill:#fff}.i{fill:#7266cf}.j{fill:#ff6fa3}</style><clipPath id="d"><path fill="none" d="M0 0h246v64H0z"/></clipPath></defs><g id="b"><g clip-path="url(#d)" id="c"><path class="j" d="M128.96 22.98c-1.82-2.5-4.77-4.12-8.1-4.12h-2.22c-1.86 0-3.37 1.5-3.37 3.35v15.23h-1.85v-9.13c0-2.43-1.13-4.6-2.88-6.02-1.4-2.07-3.78-3.43-6.47-3.43-.8 0-1.55.12-2.28.35.07-.4.1-.82.1-1.24v-5.9c0-1.3-.73-2.4-1.8-2.98-.5-1.2-1.71-2.07-3.11-2.07H86.1c-1.86 0-3.37 1.5-3.37 3.35v1.74H61.9c-1.2 0-2.32.64-2.92 1.68-.6 1.03-.6 2.32 0 3.35l1.63 2.81c-2.37 1.38-3.87 3.88-3.87 6.67v15.05c0 3 1.35 5.7 3.47 7.53 1.82 2.5 4.77 4.12 8.1 4.12h.4c.5.98 1.2 1.84 2.07 2.54.65.96 1.5 1.77 2.54 2.37 1.2.7 2.55 1.06 3.93 1.06 2.77 0 5.36-1.48 6.75-3.86l3.4-5.8.4.33c1.39 2.04 3.7 3.37 6.3 3.37 2.23 0 4.33-.94 5.8-2.5 1.47 1.56 3.54 2.5 5.73 2.5h7.35c3.16 0 5.87-1.84 7.1-4.53 1.28.93 2.8 1.44 4.44 1.44 4.37 0 7.93-3.48 7.93-7.76V30.52c0-3-1.3-5.18-3.47-7.53z"/><path class="i" d="M237.13 19.44c.84-2.3.6-4.83-.63-6.95-.55-.94-1.28-1.75-2.13-2.4-1.26-1.65-3.1-2.77-5.17-3.13-2.42-.42-4.88.24-6.76 1.8-1.88 1.58-2.96 3.88-2.96 6.32v14.78c0 .5.07 1 .2 1.5-.83.3-1.62.73-2.35 1.23-.6-1.05-1.41-1.98-2.37-2.73-1.57-1.97-3.9-3.3-6.54-3.58 2-1.9 3.26-4.6 3.26-7.56 0-3.28-1.53-6.21-3.9-8.13-1.93-2.37-4.88-3.88-8.17-3.88-3.87 0-7.38 2.1-9.22 5.4h-31.34v-.2c0-1.32-.77-2.46-1.9-3-.55-1.11-1.7-1.88-3.02-1.88h-8.87c-1.86 0-3.37 1.5-3.37 3.35v1.74h-14c-1.2 0-2.32.64-2.92 1.68-.6 1.03-.6 2.32 0 3.35l3.72 6.18c.3.48.57.65 1.1.98-.66 1.3-.34 2.64-.34 4.14v6.12c0 3.02 1.42 5.7 3.62 7.47 1.24 1.56 2.96 2.72 4.93 3.28l-.37.62c-2 3.43-1.07 7.77 2.04 10.1.6.8 1.39 1.52 2.32 2.06 1.2.7 2.55 1.06 3.93 1.06 2.77 0 5.36-1.48 6.75-3.86l3.79-6.47c.23.22.46.43.7.62 1.86 2.3 4.7 3.74 7.82 3.74h2.22c1.37 0 2.55-.81 3.07-1.98 1.66 1.26 3.7 1.98 5.85 1.98H184c5.3 0 9.63-4.3 9.63-9.58v-5.04h.87c.75 0 1.44-.25 2-.67.1.08.22.14.33.2-.82.6-1.36 1.58-1.36 2.68v3.09c0 2.53 1.23 4.78 3.12 6.2 1.43 1.88 3.68 3.1 6.23 3.1h4.12c3.23 0 6.2-1.64 7.97-4.22.25.3.52.57.8.83.1.23.2.46.35.67.34.48.78.85 1.3 1.1.08.15.16.3.26.45.52.73 1.29 1.22 2.18 1.38l1.92.34c.89.16 1.79-.05 2.52-.56.33-.23.62-.52.85-.85 2.52-.6 4.75-2.16 6.18-4.3.39-.1.76-.27 1.1-.5.74-.51 1.23-1.28 1.39-2.16l.34-1.9c.16-.88-.04-1.77-.56-2.5-.23-.33-.53-.62-.86-.84-.5-2.1-1.7-4-3.33-5.4.3-.42.54-.87.72-1.36l5.05-13.9z"/><path class="e" d="M120.85 20.34h-2.22c-1.04 0-1.88.84-1.88 1.87v16.94c-.27-.15-.58-.23-.9-.23h-5.47v-12.3c0-3.46-2.83-6.28-6.32-6.28-2.88 0-5.3 1.93-6.07 4.56-.62-1.18-1.5-2.2-2.6-2.97 2.04-1.07 3.44-3.2 3.44-5.66v-5.9c0-1.04-.84-1.88-1.88-1.88H86.08c-1.04 0-1.88.84-1.88 1.87v3.22H61.87c-.67 0-1.3.36-1.63.93s-.34 1.3 0 1.87l2.38 4.1.1.14c-2.6.8-4.5 3.18-4.5 6v15.05c0 4.68 3.82 8.5 8.52 8.5h2.22c.14 0 .28-.03.41-.06.02.44.08.9.2 1.33.43 1.62 1.47 2.98 2.93 3.83.96.56 2.06.85 3.17.85 2.24 0 4.33-1.2 5.46-3.12l5.21-8.9c.16 3.37 2.87 6.06 6.18 6.06 2.57 0 4.8-1.48 5.82-3.62 1.01 2.13 3.2 3.62 5.71 3.62h7.35c3.41 0 6.2-2.7 6.3-6.07 1.1 1.8 3.03 2.98 5.23 2.98 3.55 0 6.44-2.82 6.44-6.28V28.83c0-4.68-3.83-8.49-8.53-8.49zM86.33 36.2L83 30.46l3.33-5.74v11.5zM68.1 21.43h5.55l-2.83 4.88c-.13-2.03-1.17-3.8-2.72-4.88zm2.74 24.2V34.65l3.2 5.51-3.2 5.47z"/><path class="e" d="M229.12 31.28l5.05-13.9c.7-1.89.5-3.96-.5-5.7-1.02-1.73-2.74-2.93-4.73-3.27-1.98-.34-4 .2-5.55 1.5-1.54 1.28-2.43 3.17-2.43 5.17v14.77c0 .92.3 1.77.81 2.47-2.62.43-4.93 2.05-6.22 4.36v-.88c0-4.46-3.65-8.1-8.14-8.1H194.2c.4-.34.65-.84.65-1.4v-1.48c1.4.86 3.04 1.35 4.75 1.35 4.98 0 9.04-4.03 9.04-9 0-4.96-4.05-9-9.04-9-3.65 0-6.88 2.16-8.3 5.4H156v-3.22c0-1.03-.84-1.87-1.88-1.87h-8.87c-1.04 0-1.88.84-1.88 1.87v3.22h-15.48c-.67 0-1.3.36-1.63.93s-.34 1.3 0 1.87l2.38 4.1c.34.58.96.93 1.63.93h4.75c-2.43 1.4-4.07 4.02-4.07 7v6.12c0 4.46 3.65 8.1 8.14 8.1h2.2l-2.36 4.02c-1.75 3-.73 6.85 2.28 8.6.97.56 2.06.85 3.18.85 2.24 0 4.33-1.2 5.46-3.12l5.36-9.14c.97 3.62 4.3 6.3 8.24 6.3h2.22c1.04 0 1.88-.84 1.88-1.87v-2.18c1.4 2.42 4.04 4.05 7.05 4.05h7.9c4.48 0 8.13-3.63 8.13-8.1v-6.52h2.36c1.03 0 1.86-.82 1.88-1.84l.53.91c.34.58.96.93 1.63.93h5.93v3.37h-4.07c-1.04 0-1.88.84-1.88 1.87v3.1c0 3.45 2.83 6.27 6.32 6.27h4.12c3.68 0 6.8-2.44 7.8-5.78.77 1.72 2.08 3.18 3.75 4.1 0 .4.1.8.34 1.14.3.4.72.68 1.21.77l1.92.34c.1.02.22.03.33.03.38 0 .76-.12 1.08-.34.34-.23.58-.57.7-.95 2.64-.42 4.98-2.04 6.28-4.37.4.01.8-.1 1.14-.34.4-.28.7-.72.77-1.2l.34-1.9c.1-.49-.03-1-.3-1.4-.25-.33-.58-.58-.97-.7-.42-2.6-2.02-4.9-4.32-6.2.73-.48 1.3-1.19 1.62-2.06zm-61.58.48v-3.59h4.32c-1.83.65-3.36 1.94-4.32 3.6z"/><path class="j" d="M96.97 16.28c0 2.5-2.04 4.53-4.55 4.53V10.37h4.55v5.91zM64.66 22.21c-2.5 0-4.56 1.93-4.56 4.41v15.05c0 3.66 2.98 6.62 6.66 6.62h2.22V26.72c0-2.4-1.91-4.5-4.31-4.5zM90.43 22.21h-2.22V43.8c0 2.4 1.91 4.5 4.31 4.5 2.5 0 4.56-1.93 4.56-4.4V28.82c0-3.66-2.98-6.62-6.66-6.62z"/><path class="j" d="M86.1 10.37v5.1H61.9l2.37 4.1h12.65l-5.04 8.7c-.8 1.36-.8 3.04 0 4.4l4.35 7.5-4.37 7.46c-1.23 2.1-.52 4.8 1.6 6.04.7.4 1.47.6 2.23.6 1.53 0 3.01-.79 3.84-2.2l5.66-9.67c.8-1.37.8-3.06 0-4.43l-4.36-7.5 5.61-9.67c2.35-.18 4.2-2.13 4.2-4.5v-5.9H86.1zM120.85 22.21h-2.22v18.5c0 2.4 1.91 4.5 4.31 4.5 2.5 0 4.56-1.94 4.56-4.42V28.83c0-3.66-2.98-6.62-6.66-6.62zM108.5 39.9V26.64c0-2.44-1.99-4.41-4.44-4.41s-4.44 1.98-4.44 4.4V43.9c0 2.44 2 4.4 4.44 4.4h7.35c2.44 0 4.44-1.98 4.44-4.4v-3.1h-6.46c-.49 0-.89-.4-.89-.87zM224.33 40.11l.31-1.73-1.92-.34-.3 1.73-1.74-.3-.34 1.9 1.74.31-.31 1.73 1.92.33.3-1.73 1.74.31.34-1.91-1.74-.3z"/><g><path class="i" d="M230.05 41.1c.1-3.01-1.83-5.74-4.7-6.68l.2-1.2-1.91-.33-.21 1.19c-3.03-.1-5.78 1.82-6.72 4.68l-1.2-.2-.34 1.9 1.2.2c-.1 3.02 1.83 5.75 4.7 6.69l-.21 1.19 1.92.34.2-1.2c3.04.1 5.79-1.81 6.73-4.67l1.2.2.34-1.9-1.2-.2zm-3.3 1.4l1 .18c-.71 1.8-2.47 3.04-4.43 3.1l.18-1-1.92-.34-.18 1c-1.82-.71-3.06-2.47-3.1-4.42l1 .18.34-1.9-1-.18c.72-1.81 2.48-3.04 4.44-3.1l-.18 1 1.92.34.18-1c1.82.7 3.06 2.47 3.1 4.42l-1-.18-.34 1.9zM228.62 10.26c-3-.52-5.77 1.78-5.77 4.83v14.77c0 1.12.81 2.08 1.92 2.27 1.1.2 2.2-.44 2.58-1.49l5.05-13.9c1.04-2.86-.77-5.97-3.79-6.5zM207.43 29.58h-12.8l2.38 4.1h6.24c.86 0 1.57.7 1.57 1.56v4c0 .86-.7 1.56-1.57 1.56h-4.38v3.1c0 2.43 2 4.4 4.44 4.4h4.12c3.46 0 6.26-2.79 6.26-6.23v-6.26c0-3.44-2.8-6.23-6.26-6.23zM154.13 15.46v-5.1h-8.87v5.1H127.9l2.38 4.1h14.98v2.65h-6.16c-3.46 0-6.26 2.8-6.26 6.23v6.12c0 3.44 2.8 6.23 6.26 6.23h5.46l-4 6.83c-1.23 2.1-.52 4.8 1.6 6.04.7.4 1.47.6 2.23.6 1.53 0 3.01-.79 3.84-2.2l5.3-9.05c.4-.67.6-1.44.6-2.22V19.56h10.28v-4.1h-10.28zm-12.42 19.67v-7.26c0-.86.7-1.56 1.57-1.56h1.98v10.37h-1.98c-.86 0-1.57-.7-1.57-1.56z"/><path class="i" d="M199.61 10.06c-3.36 0-6.18 2.3-6.95 5.4h-26.7l2.38 4.1h11.52v2.65h-13.9l2.38 4.1h11.52v3.27h-5.28c-3.46 0-6.26 2.8-6.26 6.23v6.26c0 3.44 2.8 6.23 6.26 6.23h7.89c3.46 0 6.26-2.79 6.26-6.23v-8.39h4.24v-4.1h-4.24v-3.27h4.24v-4.1h-4.24v-2.65h4.12c.98 2.76 3.63 4.74 6.75 4.74 3.95 0 7.16-3.19 7.16-7.12s-3.2-7.12-7.16-7.12zM178.77 40.8c-.86 0-1.57-.7-1.57-1.56v-4c0-.86.7-1.56 1.56-1.56h1.1v7.1h-1.1zm20.84-21.74c-1.04 0-1.87-.83-1.87-1.86s.84-1.86 1.87-1.86 1.87.83 1.87 1.86-.84 1.86-1.87 1.86zM163.45 48.3h2.22V26.71c0-2.4-1.91-4.5-4.31-4.5-2.5 0-4.56 1.93-4.56 4.41v15.05c0 3.66 2.98 6.62 6.66 6.62z"/></g><g><path d="M39.64 23.73c.3-5.12-3-9.8-7.9-11.28l.37-2.1-2.54-.45-.37 2.1c-5.03-.3-9.65 2.88-11.2 7.65l2.04 3.54v-.3l1.9.34.46-2.54-1.91-.34c1.19-3.51 4.55-5.87 8.26-5.78l-.34 1.9 2.54.46.34-1.91c3.5 1.19 5.87 4.55 5.78 8.26l-1.91-.34-.45 2.54 1.9.34c-1.18 3.5-4.54 5.87-8.25 5.78l.34-1.91-2.54-.45-.34 1.9c-.58-.2-1.12-.44-1.62-.75l3.36 5.82.36-2.05c5.12.3 9.8-3 11.28-7.9l2.1.37.45-2.54-2.1-.37z" fill="#5e7ae3"/><path class="j" d="M51.97 23.26c-.13-.22-.28-.4-.45-.58l-1.32-1.32c-.56-.6-1.35-.96-2.19-.96h-5.2c-.84-3.54-3.05-6.6-6.16-8.52-.33-.24-.67-.46-1.02-.67.08-.66-.09-1.33-.47-1.88-.3-.42-.67-.76-1.09-1.03-.45-.3-.95-.54-1.5-.63l-2.54-.45c-.7-.13-1.45.04-2.04.45-.57.4-.97 1-1.1 1.69-4.56.54-8.53 3.3-10.63 7.38l-.14-.14c-.93-.98-2.45-1.24-3.67-.53l-1.68.97c-2.04 1.18-3.5 3.08-4.1 5.35-.6 2.27-.3 4.65.88 6.68L20.98 52.3c.42.72 1.07 1.5 1.65 2.07 1.3 1.3 2.81 2.15 4.68 2.15h3.87c2.04 0 3.94-1.1 4.96-2.86l15.82-27.4c.54-.93.54-2.07 0-3z"/><path class="e" d="M49.43 22.57c-.3-.5-.83-.82-1.42-.82h-4.87c.19.1.37.21.55.33.42.28.8.57 1.1 1 .42.6.58 1.32.45 2.03l-.45 2.54c-.26 1.46-1.63 2.44-3.1 2.22-2.07 4.13-6.07 6.94-10.67 7.48-.14.68-.54 1.3-1.1 1.7-.46.31-1 .5-1.57.5-.16 0-.32-.02-.47-.05l-12.5-21.66c-.45-.78-1.45-1.05-2.24-.6l-1.68.97c-1.72 1-2.95 2.6-3.47 4.52s-.25 3.93.75 5.65l13.43 23.24c.78 1.34 2.23 2.18 3.78 2.18h3.87c1.55 0 3-.84 3.78-2.18l15.82-27.4c.3-.5.3-1.13 0-1.64z"/><path class="i" d="M44.73 22.98c-.38-.53-1.42-1.14-1.6-1.23-.08-.46-.2-.92-.31-1.36-.84-3.54-3.05-6.6-6.16-8.52-.33-.24-.67-.46-1.02-.67.08-.66-.1-1.33-.47-1.88-.3-.42-.67-.76-1.1-1.03-.44-.3-.94-.54-1.5-.63l-2.53-.45c-.71-.13-1.45.04-2.04.45-.57.4-.97 1-1.1 1.7-4.5.52-8.42 3.22-10.54 7.21l-.1.16 13.1 22.63c.19-.07.38-.17.57-.3.5-.35.98-1 1.1-1.69 4.58-.54 8.6-3.35 10.68-7.48.7.11 1.43-.09 2-.5.59-.4.97-1.08 1.1-1.79l.45-2.54c.13-.7-.1-1.47-.54-2.08z"/><path class="e" d="M49.43 22.57c-.3-.5-.83-.82-1.42-.82h-4.87c.19.1.37.21.55.33.42.28.8.57 1.1 1 .42.6.58 1.32.45 2.03l-.45 2.54c-.26 1.46-1.63 2.44-3.1 2.22-2.07 4.13-6.07 6.94-10.67 7.48-.14.68-.54 1.3-1.1 1.7-.46.31-1 .5-1.57.5-.16 0-.32-.02-.47-.05l-12.5-21.66c-.45-.78-1.45-1.05-2.24-.6l-1.68.97c-1.72 1-2.95 2.6-3.47 4.52s-.25 3.93.75 5.65l13.43 23.24c.78 1.34 2.23 2.18 3.78 2.18h3.87c1.55 0 3-.84 3.78-2.18l15.82-27.4c.3-.5.3-1.13 0-1.64z"/><path class="j" d="M44.98 23.4c.27.52.37 1.12.27 1.71l-.45 2.54c-.26 1.46-1.63 2.44-3.09 2.22-2.08 4.13-6.08 6.94-10.68 7.48-.12.6-.44 1.14-.9 1.53l-2.24 3.88-13.93-24.1-1.68.97c-2.78 1.6-3.73 5.15-2.12 7.93L23.59 50.8c.49.84 1.39 1.36 2.36 1.36h3.87c.97 0 1.88-.52 2.36-1.36L48 23.4h-3.03z"/><path class="e" d="M42.86 23.32c-.2-.3-.52-.5-.88-.56l-.97-.17c-.18-4.9-3.2-9.2-7.73-11.03l.17-.97c.06-.36-.02-.72-.23-1.02-.2-.3-.52-.5-.88-.56l-2.54-.45c-.36-.06-.72.02-1.02.23-.3.2-.5.52-.56.88l-.17.97c-4.8.18-9.04 3.1-10.94 7.5l11.14 19.3.07-.04c.3-.2.5-.52.56-.88l.17-.97c4.9-.18 9.2-3.2 11.03-7.73l.97.17c.74.13 1.45-.36 1.58-1.1l.45-2.54c.06-.36-.02-.72-.23-1.02z"/><path class="j" d="M30.65 18.64l-2.54-.45-.43 2.45c-.1.52-.6.87-1.11.78L24.12 21l-.45 2.54 2.45.43c.52.1.87.6.78 1.11l-.43 2.45 2.54.45.43-2.45c.1-.52.59-.87 1.1-.78l2.46.43.45-2.54L31 22.2c-.52-.1-.87-.59-.78-1.1l.43-2.46z"/><path class="i" d="M39.64 23.73c.3-5.12-3-9.8-7.9-11.28l.37-2.1-2.54-.45-.37 2.1c-5.03-.3-9.65 2.88-11.2 7.65l2.04 3.54v-.3l1.9.34.46-2.54-1.91-.34c1.19-3.51 4.55-5.87 8.26-5.78l-.34 1.9 2.54.46.34-1.91c3.5 1.19 5.87 4.55 5.78 8.26l-1.91-.34-.45 2.54 1.9.34c-1.18 3.5-4.54 5.87-8.25 5.78l.34-1.91-2.54-.45-.34 1.9c-.58-.2-1.12-.44-1.62-.75l3.36 5.82.36-2.05c5.12.3 9.8-3 11.28-7.9l2.1.37.45-2.54-2.1-.37z"/></g></g></g></svg>