<?xml version="1.0" encoding="UTF-8" standalone="no"?>
<svg
     xmlns:dc="http://purl.org/dc/elements/1.1/"
     xmlns:cc="http://creativecommons.org/ns#"
     xmlns:rdf="http://www.w3.org/1999/02/22-rdf-syntax-ns#"
     xmlns:svg="http://www.w3.org/2000/svg"
     xmlns="http://www.w3.org/2000/svg"
     version="1.1"
     id="svg5981"
     viewBox="0 0 500.00001 64.022621"
     height="64.022621"
     width="500">
    <defs
         id="defs5983" />
    <metadata
         id="metadata5986">
        <rdf:RDF>
            <cc:Work
                 rdf:about="">
                <dc:format>image/svg+xml</dc:format>
                <dc:type
                     rdf:resource="http://purl.org/dc/dcmitype/StillImage" />
                <dc:title></dc:title>
            </cc:Work>
        </rdf:RDF>
    </metadata>
    <g
         transform="translate(-282.20036,-577.2508)"
         id="layer1">
        <path
             id="path5944"
             d="m 768.4826,579.8605 c -0.0918,-0.41282 -0.41282,-0.70158 -0.91707,-0.75199 -0.37611,0 -0.73368,0.22924 -0.85748,0.59147 l -20.06115,47.69741 -19.99238,-47.69741 c -0.16074,-0.37611 -0.53649,-0.59147 -0.93086,-0.57316 -0.42626,0.0313 -0.77035,0.33939 -0.83913,0.73368 l -12.19715,58.42725 c -0.1285,0.57316 0.32103,1.12801 0.93082,1.12801 l 3.45741,0 c 0.42625,0 0.82076,-0.32103 0.91246,-0.75199 l 9.13417,-44.06117 18.66261,44.43714 c 0.30715,0.78871 1.41685,0.78871 1.71953,0 l 18.73595,-44.43714 9.13412,44.06117 c 0.0918,0.43118 0.48607,0.75199 0.91707,0.75199 l 3.45741,0 c 0.60527,0 1.05467,-0.55485 0.93082,-1.12801 L 768.4826,579.8605"
             style="fill:#e9528e;fill-opacity:1;fill-rule:evenodd;stroke:none" />
        <path
             id="path5946"
             style="fill:#ffe100;fill-opacity:1;fill-rule:evenodd;stroke:none"
             d="m 371.64769,579.53494 -3.63619,0 c -0.55941,0.0179 -1.02256,0.46772 -1.02256,1.02252 l 0,23.41312 -32.76274,0 0,-23.41312 c 0,-0.5548 -0.44461,-1.00421 -0.99964,-1.02252 l -3.65455,0 c -0.55485,0 -1.00421,0.46772 -1.00421,1.02252 l 0,57.55146 c 0,0.55485 0.44936,1.00421 1.00421,1.00421 l 3.65455,0 c 0.55485,0 0.99964,-0.44936 0.99964,-1.00421 l 0,-28.67713 32.76274,0 0,28.67713 c 0,0.55485 0.46315,1.00421 1.02256,1.00421 l 3.63619,0 c 0.57321,0 1.018,-0.44936 1.018,-1.00421 l 0,-57.55146 c 0,-0.5548 -0.46315,-1.02252 -1.018,-1.02252" />
        <path
             id="path5948"
             style="fill:#aace36;fill-opacity:1;fill-rule:evenodd;stroke:none"
             d="m 415.8877,578.7508 c -16.6221,0 -30.68094,13.96719 -30.68094,30.52047 0,16.5304 14.05884,30.50215 30.68094,30.50215 16.62209,0 30.66262,-13.97175 30.66262,-30.50215 0,-16.55328 -14.04053,-30.52047 -30.66262,-30.52047 z m 25.07761,30.52047 c 0,13.61409 -11.50019,25.10971 -25.07761,25.10971 -13.59574,0 -25.07757,-11.49562 -25.07757,-25.10971 0,-13.61405 11.48183,-25.11424 25.07757,-25.11424 13.57742,0 25.07761,11.50019 25.07761,25.11424 z" />
        <path
             id="path5950"
             style="fill:#3071b9;fill-opacity:1;fill-rule:evenodd;stroke:none"
             d="m 602.38537,578.7508 c -16.62209,0 -30.66719,13.96719 -30.66719,30.52047 0,16.5304 14.0451,30.50215 30.66719,30.50215 16.6221,0 30.68099,-13.97175 30.68099,-30.50215 0,-16.55328 -14.05889,-30.52047 -30.68099,-30.52047 z m 25.07762,30.52047 c 0,13.61409 -11.48188,25.10971 -25.07762,25.10971 -13.59569,0 -25.05921,-11.49562 -25.05921,-25.10971 0,-13.61405 11.46352,-25.11424 25.05921,-25.11424 13.59574,0 25.07762,11.50019 25.07762,25.11424 z" />
        <path
             id="path5952"
             style="fill:#a660a3;fill-opacity:1;fill-rule:evenodd;stroke:none"
             d="m 673.7435,578.7508 c -16.64045,0 -30.68098,13.96719 -30.68098,30.52047 0,16.5304 14.04053,30.50215 30.68098,30.50215 16.6221,0 30.6672,-13.97175 30.6672,-30.50215 0,-16.55328 -14.0451,-30.52047 -30.6672,-30.52047 z m 0,55.63018 c -13.59116,0 -25.073,-11.49562 -25.073,-25.10971 0,-13.61405 11.48184,-25.11424 25.073,-25.11424 13.57738,0 25.05926,11.50019 25.05926,25.11424 0,13.61409 -11.48188,25.10971 -25.05926,25.10971 z" />
        <path
             id="path5954"
             style="fill:#f39800;fill-opacity:1;fill-rule:evenodd;stroke:none"
             d="m 303.34808,607.17577 -4.60378,-1.45357 c -5.41075,-1.71952 -8.14822,-5.08523 -8.14822,-9.99159 0,-5.39244 3.2235,-11.21592 10.33546,-11.21592 2.71917,0 5.15863,0.32551 9.45511,4.33777 l 0.23373,0.22924 c 0.33939,0.36223 1.0042,0.34387 1.30683,0.0179 l 2.54491,-2.43484 c 0.43118,-0.37611 0.43118,-1.02257 0.0358,-1.41233 l -0.28925,-0.27089 c -1.93503,-1.88004 -5.96559,-5.75009 -13.28849,-5.75009 -8.90487,0 -15.6225,7.0936 -15.6225,16.4983 0,7.86395 4.15898,13.03627 12.36228,15.4207 l 3.32899,0.96754 c 4.17273,1.23345 8.95529,3.47572 8.95529,10.13832 0,4.5487 -3.04472,11.76615 -11.22966,11.76615 -5.17693,0 -8.61599,-4.15437 -10.45931,-6.39207 l -0.41283,-0.50439 c -0.33939,-0.42625 -1.14632,-0.41282 -1.41228,-0.0689 l -2.34776,2.34315 -0.21581,0.30715 c -0.25208,0.33939 -0.23373,0.82538 0.0551,1.16472 l 0.19746,0.24761 c 2.3615,2.86589 6.74973,8.18951 14.59537,8.18951 10.71149,0 16.51661,-8.77646 16.51661,-17.0531 0,-9.99621 -6.02062,-13.23808 -11.91288,-15.08141" />
        <path
             id="path5956"
             style="fill:#00a73c;fill-opacity:1;fill-rule:evenodd;stroke:none"
             d="m 521.78311,579.7688 c -0.17865,-0.2476 -0.46771,-0.41282 -0.7887,-0.41282 l -3.54911,0 c -0.38999,0 -0.73368,0.23417 -0.89415,0.57316 l -19.46963,46.23005 -15.47573,-46.15667 c -0.14194,-0.3761 -0.49982,-0.64654 -0.91251,-0.64654 l -3.69127,0 c -0.30268,0 -0.59152,0.14686 -0.77035,0.39446 -0.1791,0.23417 -0.23417,0.54106 -0.14193,0.82538 l 7.27243,21.92283 -9.95949,23.66068 -15.49409,-46.15667 c -0.12358,-0.39447 -0.48147,-0.64655 -0.89415,-0.64655 l -3.69127,0 c -0.30268,0 -0.59152,0.14686 -0.77035,0.39447 -0.17865,0.23417 -0.23372,0.54105 -0.14194,0.82537 l 19.35963,58.37223 c 0.1285,0.37611 0.48602,0.62819 0.8804,0.64654 l 0.0358,0 c 0.37611,0 0.73368,-0.23417 0.87584,-0.57316 l 12.27054,-29.08982 9.62019,29.01644 c 0.12358,0.37611 0.48146,0.62819 0.87579,0.64654 l 0.0358,0 c 0.37611,0 0.73363,-0.23417 0.87579,-0.57316 l 24.62826,-58.37222 c 0.1285,-0.28925 0.0918,-0.60988 -0.0873,-0.88041" />
        <path
             id="path5958"
             style="fill:#54c3f1;fill-opacity:1;fill-rule:evenodd;stroke:none"
             d="m 562.89126,637.5174 -17.64461,-25.6141 c 9.56516,-0.57316 15.47573,-6.62589 15.47573,-15.95719 0,-5.7501 -2.15057,-10.30341 -6.18114,-13.15095 -4.22772,-3.09518 -9.20746,-3.09518 -13.60948,-3.09518 l -7.13032,0 c -0.55481,0.0134 -1.00421,0.46315 -1.00421,1.018 l 0,57.37258 c 0,0.55485 0.4494,1.02257 1.02257,1.02257 l 3.61788,0 c 0.55484,0 1.01795,-0.46772 1.01795,-1.02257 l 0,-26.15054 0.27089,0 18.34162,26.72375 c 0.17865,0.28432 0.49982,0.44936 0.82538,0.44936 l 4.15437,0 c 0.82537,-0.0179 1.28848,-0.93543 0.82537,-1.59573 l 0.0179,0 z m -7.82728,-41.73638 c 0,3.38864 -1.32519,6.39664 -3.67291,8.295 -2.56321,2.2377 -5.73174,2.41653 -9.33131,2.41653 l -3.61788,0 0,-21.34967 3.1135,0 c 2.79712,0 5.69507,0.0918 8.06114,1.2197 4.01225,1.7883 5.44746,6.05278 5.44746,9.41844 z" />
    </g>
</svg>
