<svg width="165" height="24" viewBox="0 0 165 24" fill="none" xmlns="http://www.w3.org/2000/svg">
<path fill-rule="evenodd" clip-rule="evenodd" d="M3.47698 13.5249C3.26368 13.5249 3.09134 13.6446 3.09134 13.792V16.1582C3.33401 16.1839 3.59136 16.2085 3.8634 16.2298V13.792C3.8634 13.6446 3.69029 13.5249 3.47698 13.5249Z" fill="#00A63C"/>
<path fill-rule="evenodd" clip-rule="evenodd" d="M8.60154 13.5249C8.4436 13.5249 8.31542 13.6446 8.31542 13.792V15.1273C7.58412 15.0552 6.8099 15.0136 5.99277 15.0136C5.34787 15.0136 4.72014 15.0365 4.12674 15.0819C3.96938 15.0942 3.85207 15.223 3.86523 15.3693C3.87782 15.5162 4.01916 15.623 4.17366 15.6134C5.49264 15.5119 7.02964 15.5301 8.31542 15.6588V16.2298C8.51742 16.2085 8.70797 16.1839 8.88765 16.1582V13.792C8.88765 13.6446 8.75947 13.5249 8.60154 13.5249Z" fill="#00A63C"/>
<path fill-rule="evenodd" clip-rule="evenodd" d="M8.50122 18.1616C8.28792 18.1616 8.11481 18.291 8.11481 18.4511V20.0219L8.88764 20.4801V18.4511C8.88764 18.291 8.71453 18.1616 8.50122 18.1616Z" fill="#00A63C"/>
<path fill-rule="evenodd" clip-rule="evenodd" d="M3.47698 18.1616C3.26368 18.1616 3.09134 18.291 3.09134 18.4505V20.4801L3.8634 20.0237V18.4505C3.8634 18.291 3.69029 18.1616 3.47698 18.1616Z" fill="#00A63C"/>
<path fill-rule="evenodd" clip-rule="evenodd" d="M8.50122 10.8193C8.28792 10.8193 8.11481 10.9394 8.11481 11.0884V12.365L8.88764 11.8828V11.0884C8.88764 10.9394 8.71453 10.8193 8.50122 10.8193Z" fill="#FFE100"/>
<path fill-rule="evenodd" clip-rule="evenodd" d="M8.88759 10.1578V9.49644C8.88759 9.2841 8.79491 9.09931 8.63314 8.98963C8.47137 8.87886 8.2596 8.85725 8.0529 8.92857C8.04728 8.92965 7.49231 9.10525 5.99368 9.10525C4.49392 9.10525 3.93109 8.92857 3.92772 8.92803C3.72045 8.85671 3.507 8.87994 3.34579 8.98909C3.18402 9.09931 3.09134 9.2841 3.09134 9.49644V11.8803L3.65248 12.365V9.49644C3.65248 9.45538 3.66428 9.43376 3.6699 9.42998C3.67551 9.42674 3.69967 9.42188 3.74067 9.43592C3.76595 9.44511 4.37372 9.64557 5.99368 9.64557C7.61364 9.64557 8.21467 9.44511 8.23882 9.43701C8.27926 9.42296 8.30342 9.42674 8.30903 9.42998C8.31521 9.43376 8.32589 9.45538 8.32589 9.49644V10.0108C8.29724 10.0211 8.26972 10.0308 8.2304 10.0438L8.08042 10.0946C8.0748 10.0967 7.49456 10.281 5.99368 10.281C5.17752 10.281 4.63772 10.2264 4.3299 10.1805C4.1788 10.1626 4.03388 10.2588 4.00973 10.4058C3.98614 10.5533 4.09118 10.6911 4.24396 10.7138C4.572 10.7624 5.14157 10.8207 5.99368 10.8207C7.61364 10.8207 8.24051 10.6122 8.26691 10.6035L8.41295 10.5538C8.55169 10.5079 8.61741 10.4858 8.73593 10.4269C8.78199 10.4031 8.81513 10.3674 8.84041 10.3274C8.84715 10.3177 8.85164 10.3091 8.8567 10.2993C8.87748 10.2567 8.88984 10.2118 8.88591 10.1643C8.88591 10.1621 8.88759 10.1599 8.88759 10.1578Z" fill="#FFE100"/>
<path fill-rule="evenodd" clip-rule="evenodd" d="M9.45581 15.8431C9.55222 15.8431 9.63797 15.7372 9.65685 15.5849C9.67777 15.4129 9.60433 15.248 9.49314 15.215C9.30401 15.1604 9.09969 15.1135 8.88757 15.0703V15.7093C9.0722 15.748 9.2519 15.7898 9.41765 15.8381C9.43037 15.8412 9.44309 15.8431 9.45581 15.8431Z" fill="#3071B7"/>
<path fill-rule="evenodd" clip-rule="evenodd" d="M2.23315 15.8431C2.2519 15.8431 2.27125 15.8406 2.29 15.8368C2.54035 15.7877 2.81187 15.7448 3.09126 15.7057V15.0703C2.77196 15.1138 2.46295 15.1623 2.17752 15.2191C2.01424 15.2506 1.906 15.4158 1.93744 15.586C1.96466 15.7379 2.09165 15.8431 2.23315 15.8431Z" fill="#3071B7"/>
<path fill-rule="evenodd" clip-rule="evenodd" d="M11.3228 15.8428C11.2077 15.9774 11.0288 16.095 10.8088 16.1998C11.3108 16.3903 11.4304 16.5553 11.4304 16.608C11.4304 16.9549 9.50985 17.6297 5.99029 17.6297C2.46907 17.6297 0.548012 16.9549 0.548012 16.608C0.548012 16.5542 0.669244 16.3898 1.17008 16.1998C0.950108 16.095 0.770728 15.9774 0.656079 15.8428C0.217779 16.0604 0 16.3126 0 16.608C0 17.8361 3.91837 18.1613 5.99029 18.1613C8.0611 18.1613 11.9789 17.8361 11.9789 16.608C11.9789 16.3126 11.7606 16.0604 11.3228 15.8428Z" fill="#3071B7"/>
<path fill-rule="evenodd" clip-rule="evenodd" d="M10.5498 18.0375C10.5387 17.8802 10.4042 17.7658 10.2665 17.7755C10.1219 17.7881 10.0132 17.9254 10.0243 18.0827L10.2907 21.7407C10.2928 21.7693 10.2928 21.7939 10.2923 21.8134C10.277 21.8031 10.258 21.7894 10.2369 21.7716L6.68631 18.7276C6.29373 18.3923 5.68112 18.3934 5.29224 18.7287L1.74164 21.7716C1.72106 21.7899 1.70207 21.8031 1.68677 21.8134C1.68571 21.7939 1.68571 21.7693 1.68835 21.7407L1.95429 18.0839C1.96537 17.926 1.8572 17.7881 1.71209 17.7761C1.5691 17.7658 1.43982 17.8808 1.42874 18.0381L1.1628 21.6949C1.1322 22.1212 1.31107 22.2917 1.4203 22.3552C1.46937 22.3833 1.54166 22.4119 1.63453 22.4119C1.75008 22.4119 1.8973 22.3667 2.06879 22.2196L5.61939 19.1762C5.8162 19.0068 6.16235 19.0074 6.35916 19.1756L9.91029 22.2196C10.2184 22.4851 10.4485 22.4182 10.5588 22.3547C10.6685 22.2917 10.8469 22.1212 10.8163 21.6949L10.5498 18.0375Z" fill="#A560A2"/>
<path fill-rule="evenodd" clip-rule="evenodd" d="M10.5505 10.8632C10.4383 10.8079 10.2064 10.7569 9.90658 11.0294L8.70826 12.1123L8.18129 12.5882L6.33217 14.2595C6.14615 14.4279 5.83155 14.4274 5.64659 14.2606L3.79693 12.5887L3.27049 12.1123L2.07165 11.0289C1.77127 10.7585 1.54046 10.8084 1.42822 10.8632C1.31703 10.9179 1.1347 11.0698 1.1621 11.4755L1.37131 14.6711L1.40925 15.2543L1.4298 15.5703L1.43296 15.6144C1.51938 15.6659 1.63795 15.7206 1.78445 15.7764C1.84294 15.7987 1.90618 15.8205 1.97521 15.8428L1.68643 11.441C1.68538 11.4235 1.68485 11.4075 1.68485 11.3943C1.69592 11.4022 1.70751 11.4123 1.72016 11.424L5.2951 14.6552C5.67768 14.9994 6.2995 15.001 6.68313 14.6547L10.2581 11.4245C10.2712 11.4123 10.2828 11.4022 10.2934 11.3943C10.2934 11.4075 10.2934 11.4235 10.2923 11.441L10.0035 15.8428C10.0778 15.8189 10.1458 15.795 10.2085 15.7711C10.3487 15.7174 10.4625 15.6643 10.5458 15.6144L10.549 15.5703L10.6069 14.6727L10.8172 11.4755C10.8435 11.0698 10.6617 10.9179 10.5505 10.8632Z" fill="#A9CD36"/>
<path fill-rule="evenodd" clip-rule="evenodd" d="M9.78567 14.6838C9.90559 14.6838 10.014 14.6375 10.0407 14.5694C10.0716 14.4912 9.98257 14.4138 9.84118 14.3966C9.58563 14.3652 9.22011 14.3259 8.88757 14.2974V14.5912C9.18554 14.6177 9.50184 14.6526 9.72964 14.6803C9.74849 14.6826 9.76682 14.6838 9.78567 14.6838Z" fill="#54C2F0"/>
<path fill-rule="evenodd" clip-rule="evenodd" d="M2.19056 14.6838C2.20872 14.6838 2.2274 14.6823 2.24556 14.6803C2.36385 14.6658 2.72859 14.623 3.09126 14.5899V14.2974C2.68864 14.3318 2.26631 14.3817 2.13609 14.3976C1.996 14.4147 1.9078 14.4917 1.93789 14.5694C1.96435 14.6374 2.07123 14.6838 2.19056 14.6838Z" fill="#54C2F0"/>
<path fill-rule="evenodd" clip-rule="evenodd" d="M10.535 14.6853L10.4966 15.3021C10.6242 15.3928 10.6653 15.4604 10.6653 15.4773C10.6653 15.5268 10.6134 15.5871 10.5182 15.6536C10.5036 15.6637 10.489 15.6739 10.4723 15.684C10.3868 15.7369 10.27 15.7933 10.1262 15.8502C10.0618 15.8755 9.99204 15.9009 9.91578 15.9262C9.58265 16.0383 9.13866 16.1476 8.58651 16.2366C8.4167 16.2636 8.23662 16.2895 8.04572 16.3121C7.40866 16.3892 6.66128 16.4394 5.79709 16.4394C4.93182 16.4394 4.1839 16.3892 3.54631 16.3121C3.35595 16.2895 3.17586 16.2636 3.00605 16.2366C2.4539 16.147 2.00937 16.0383 1.67678 15.9262C1.60594 15.9026 1.54104 15.8795 1.48101 15.8558C1.33067 15.7967 1.20899 15.7386 1.1203 15.684C1.103 15.6733 1.08894 15.6632 1.07379 15.6536C0.979155 15.5871 0.926698 15.5268 0.926698 15.4773C0.926698 15.4604 0.966176 15.3928 1.09597 15.3021L1.05703 14.6836C0.615741 14.905 0.386444 15.1708 0.386444 15.4773C0.386444 15.626 0.441605 15.76 0.538407 15.8828C0.651433 16.0254 0.828273 16.1498 1.04513 16.2608C2.15701 16.8286 4.42348 17.0021 5.79709 17.0021C7.16963 17.0021 9.43556 16.8286 10.5474 16.2608C10.7643 16.1498 10.9406 16.0254 11.0542 15.8828C11.151 15.76 11.2061 15.626 11.2061 15.4773C11.2061 15.172 10.9747 14.9067 10.535 14.6853Z" fill="#54C2F0"/>
<path fill-rule="evenodd" clip-rule="evenodd" d="M5.98888 8.88759C4.68959 8.88759 3.14137 8.7563 3.14137 8.13172C3.14137 7.99724 3.14137 7.64163 4.65974 7.32695C4.80673 7.29612 4.96048 7.38542 4.99428 7.52894C5.02751 7.67192 4.93233 7.81385 4.78026 7.84521C4.41081 7.92176 4.03291 8.0371 3.82509 8.12906C4.11119 8.23059 4.79547 8.35604 5.98888 8.35604C7.10006 8.35604 7.77082 8.24547 8.08846 8.1466C7.64579 7.98129 6.70695 7.74422 5.88863 7.57518C5.75966 7.5486 5.66729 7.4407 5.66729 7.31578V6.27659C5.6335 6.27394 5.59971 6.27022 5.57099 6.26703C3.93716 6.06716 2.7049 4.72552 2.7049 3.14627C2.7049 1.41128 4.17821 0 5.98944 0C7.80011 0 9.27398 1.41128 9.27398 3.14627C9.27398 4.20141 8.726 5.18053 7.80743 5.76577C7.67677 5.84763 7.50387 5.81521 7.41713 5.69507C7.32984 5.57335 7.36419 5.40803 7.49317 5.32618C8.25629 4.83927 8.71135 4.02493 8.71135 3.14627C8.71135 1.7047 7.49035 0.531023 5.98944 0.531023C4.48797 0.531023 3.26753 1.7047 3.26753 3.14627C3.26753 4.45974 4.2886 5.57494 5.64308 5.74026C5.75909 5.75514 5.95734 5.76205 5.95734 5.76205C6.11053 5.76737 6.23049 5.88431 6.23049 6.0273V7.10316C8.83582 7.65704 8.83638 7.93983 8.83638 8.128C8.83638 8.75523 7.2876 8.88759 5.98888 8.88759Z" fill="#F29600"/>
<path fill-rule="evenodd" clip-rule="evenodd" d="M8.72702 21.5307C8.73296 21.4956 8.73296 21.4588 8.72324 21.4221C8.68814 21.2774 8.54178 21.1904 8.39705 21.2244C8.38787 21.2266 7.42226 21.4588 5.949 21.4588C4.4752 21.4588 3.50203 21.2266 3.49177 21.2244C3.34488 21.1893 3.20176 21.2784 3.16666 21.4226C3.15802 21.4572 3.15748 21.4912 3.16234 21.5247C3.16288 21.5317 3.1591 21.5382 3.15964 21.5463C3.1618 21.5668 3.36972 23.5715 5.94576 23.5715C8.52234 23.5715 8.7281 21.5766 8.72972 21.5566C8.7308 21.5479 8.72702 21.5398 8.72702 21.5307ZM5.94551 23.0314C4.46631 23.0314 3.95759 22.2823 3.78477 21.8303C4.22167 21.9032 4.97612 21.9988 5.94875 21.9988C6.92138 21.9988 7.67367 21.9032 8.10841 21.8303C7.93884 22.278 7.43389 23.0314 5.94551 23.0314Z" fill="#E8528D"/>
<path fill-rule="evenodd" clip-rule="evenodd" d="M161.393 3.30429C161.368 3.18863 161.27 3.10363 161.124 3.0918C161.005 3.0918 160.914 3.15043 160.869 3.25695L154.942 16.964L149.039 3.25802C148.997 3.16065 148.891 3.09233 148.761 3.09233C148.76 3.09233 148.76 3.09233 148.759 3.09233C148.638 3.10309 148.537 3.19078 148.513 3.30483L144.912 20.0965C144.896 20.1761 144.915 20.2578 144.968 20.3208C145.021 20.3837 145.099 20.4192 145.182 20.4192H146.205C146.334 20.4192 146.448 20.3294 146.476 20.2057L149.175 7.54227L154.687 20.3127C154.729 20.4144 154.829 20.4806 154.942 20.4806C155.054 20.4806 155.155 20.4155 155.197 20.3149L160.732 7.54012L163.432 20.2057C163.458 20.3294 163.572 20.4192 163.702 20.4192H164.725C164.807 20.4192 164.885 20.3837 164.938 20.3208C164.991 20.2578 165.011 20.1761 164.994 20.0965L161.393 3.30429Z" fill="#E8528D"/>
<path fill-rule="evenodd" clip-rule="evenodd" d="M46.077 3.0918H45.0234C44.8623 3.0918 44.7309 3.22456 44.7309 3.38848V10.2197H35.258V3.38848C35.258 3.22456 35.1265 3.0918 34.9649 3.0918H33.9113C33.7497 3.0918 33.6183 3.22456 33.6183 3.38848V20.1833C33.6183 20.3472 33.7497 20.4806 33.9113 20.4806H34.9649C35.1265 20.4806 35.258 20.3472 35.258 20.1833V11.8151H44.7309V20.1833C44.7309 20.3472 44.8623 20.4806 45.0234 20.4806H46.077C46.2386 20.4806 46.37 20.3472 46.37 20.1833V3.38848C46.37 3.22456 46.2386 3.0918 46.077 3.0918Z" fill="#FFE100"/>
<path fill-rule="evenodd" clip-rule="evenodd" d="M59.0555 2.88574C54.235 2.88574 50.1625 6.91776 50.1625 11.6902C50.1625 16.4626 54.235 20.4946 59.0555 20.4946C63.8744 20.4946 67.9469 16.4626 67.9469 11.6902C67.9469 6.91776 63.8744 2.88574 59.0555 2.88574ZM66.3234 11.6903C66.3234 15.6181 62.9946 18.9361 59.0554 18.9361C55.1147 18.9361 51.7858 15.6181 51.7858 11.6903C51.7858 7.76197 55.1147 4.4439 59.0554 4.4439C62.9946 4.4439 66.3234 7.76197 66.3234 11.6903Z" fill="#A9CD36"/>
<path fill-rule="evenodd" clip-rule="evenodd" d="M113.12 2.88574C108.3 2.88574 104.228 6.91776 104.228 11.6902C104.228 16.4626 108.3 20.4946 113.12 20.4946C117.94 20.4946 122.012 16.4626 122.012 11.6902C122.012 6.91776 117.94 2.88574 113.12 2.88574ZM120.389 11.6903C120.389 15.6181 117.06 18.9361 113.12 18.9361C109.18 18.9361 105.852 15.6181 105.852 11.6903C105.852 7.76197 109.18 4.4439 113.12 4.4439C117.06 4.4439 120.389 7.76197 120.389 11.6903Z" fill="#3071B7"/>
<path fill-rule="evenodd" clip-rule="evenodd" d="M133.804 2.88574C128.984 2.88574 124.912 6.91776 124.912 11.6902C124.912 16.4626 128.984 20.4946 133.804 20.4946C138.624 20.4946 142.696 16.4626 142.696 11.6902C142.696 6.91776 138.624 2.88574 133.804 2.88574ZM133.804 18.9361C129.864 18.9361 126.536 15.6181 126.536 11.6903C126.536 7.76197 129.864 4.4439 133.804 4.4439C137.744 4.4439 141.073 7.76197 141.073 11.6903C141.073 15.6181 137.744 18.9361 133.804 18.9361Z" fill="#A35FA2"/>
<path fill-rule="evenodd" clip-rule="evenodd" d="M26.4019 11.1808L25.1062 10.7631C23.5795 10.2625 22.8061 9.28895 22.8061 7.87063C22.8061 6.30658 23.717 4.6228 25.7178 4.6228C26.4864 4.6228 27.171 4.71544 28.3828 5.87859L28.45 5.94577C28.5471 6.046 28.7319 6.04329 28.8222 5.94902L29.5362 5.24095C29.5945 5.18948 29.6286 5.11417 29.6286 5.03399C29.6286 4.95869 29.5992 4.88826 29.5462 4.83571L29.4648 4.75553C28.9198 4.2154 27.7853 3.0918 25.7178 3.0918C23.2104 3.0918 21.3193 5.14614 21.3193 7.87063C21.3193 10.1406 22.4917 11.6402 24.8012 12.3271L25.7409 12.6126C26.9169 12.9664 28.2673 13.6192 28.2673 15.5468C28.2673 16.8622 27.4073 18.949 25.0994 18.949C23.6404 18.949 22.6707 17.7458 22.1499 17.1L22.0344 16.9564C21.9388 16.8297 21.7146 16.8378 21.638 16.9326L20.9781 17.6147L20.9166 17.6992C20.8452 17.8016 20.8505 17.9408 20.9298 18.0383L20.9891 18.1104C21.6532 18.9387 22.8891 20.4806 25.0994 20.4806C28.1224 20.4806 29.7541 17.9381 29.7541 15.5468C29.7541 12.6489 28.0588 11.7139 26.4019 11.1808Z" fill="#F29600"/>
<path fill-rule="evenodd" clip-rule="evenodd" d="M89.6025 3.21069C89.5508 3.13611 89.4653 3.0918 89.3733 3.0918H88.3473C88.2354 3.0918 88.1353 3.15719 88.0922 3.25824L82.4665 16.6015L77.996 3.27662C77.9594 3.16637 77.854 3.0918 77.734 3.0918H76.6698C76.5815 3.0918 76.4987 3.13287 76.4465 3.20204C76.3954 3.27175 76.3803 3.36146 76.4072 3.44306L78.5072 9.7718L75.6271 16.6015L71.1571 3.27662C71.1205 3.16637 71.0145 3.0918 70.895 3.0918H69.8303C69.7426 3.0918 69.6597 3.13287 69.6075 3.20204C69.5559 3.27175 69.5413 3.36146 69.5682 3.44306L75.159 20.2947C75.195 20.4017 75.2951 20.4762 75.4102 20.4806H75.421C75.5324 20.4806 75.6335 20.4152 75.676 20.3141L79.2195 11.9194L81.9979 20.2947C82.034 20.4017 82.134 20.4762 82.2492 20.4806H82.2605C82.3713 20.4806 82.473 20.4152 82.5155 20.3141L89.6283 3.46252C89.6628 3.37984 89.6531 3.28526 89.6025 3.21069Z" fill="#00A63C"/>
<path fill-rule="evenodd" clip-rule="evenodd" d="M101.669 19.8421L96.5544 12.4498C99.3276 12.2878 101.04 10.5402 101.04 7.84483C101.04 6.18634 100.421 4.87456 99.2515 4.05206C98.0245 3.1626 96.5793 3.1626 95.3037 3.1626H93.2407C93.0798 3.1626 92.9491 3.29275 92.9491 3.45368V20.0078C92.9491 20.1688 93.0798 20.2989 93.2407 20.2989H94.2938C94.4542 20.2989 94.5854 20.1688 94.5854 20.0078V12.4612H94.6686L99.9811 20.1731C100.035 20.252 100.125 20.2989 100.221 20.2989H101.429C101.537 20.2989 101.636 20.2395 101.687 20.1429C101.738 20.0467 101.731 19.9317 101.669 19.8421ZM99.4023 7.80059C99.4023 8.77646 99.0167 9.64756 98.339 10.1936C97.5975 10.8384 96.6745 10.8908 95.6322 10.8908H94.5851V4.73311L95.4891 4.73203C96.2959 4.73203 97.14 4.75849 97.8194 5.08144C98.987 5.59989 99.4023 6.82634 99.4023 7.80059Z" fill="#54C2F0"/>
</svg>
