<svg width="504" height="170" viewBox="0 0 504 170" fill="none" xmlns="http://www.w3.org/2000/svg">
<g clip-path="url(#clip0_810_55758)">
<path d="M504 61.1098L488.658 45.7398C486.834 43.9119 484.401 42.929 481.864 42.929H463.717C462.333 42.929 461.184 41.7778 461.184 40.3909V9.64752C461.184 4.33231 456.893 0.0336914 451.587 0.0336914H384.404L393.496 9.14259H443.04V51.5296C443.04 56.8448 447.33 61.1435 452.636 61.1435L504.003 61.1098H504Z" fill="#010000"/>
<path d="M251.73 0H194.688L210.063 15.4037C211.887 17.2315 214.32 18.2144 216.857 18.2144H226.151V68.4582L241.526 53.0545C243.35 51.2266 244.331 48.7895 244.331 46.2481V18.2144H273.899L258.524 2.84443C256.73 1.01659 254.264 0 251.73 0Z" fill="#010000"/>
<path d="M191.476 32.5342L191.443 8.32795C191.443 3.723 187.693 0 183.13 0H148.626L130.445 18.2144H170.728C172.146 18.2144 173.295 19.3657 173.295 20.7862V22.0384C173.295 23.459 172.146 24.6102 170.728 24.6102H130.445V67.5392L145.821 52.1692C147.645 50.3413 148.626 47.9042 148.626 45.3627V40.8924H157.752L177.925 61.103H202.259L182.052 40.8924H183.133C187.764 40.8924 191.48 37.1694 191.48 32.5308L191.476 32.5342Z" fill="#010000"/>
<path d="M102.328 68.8958L118.211 53.5258C120.069 51.6979 121.151 49.1935 121.151 46.5847V26.0005L102.328 25.9668V68.8958Z" fill="#010000"/>
<path d="M121.152 0L102.971 18.2144H121.488L139.669 0H121.152Z" fill="#010000"/>
<path d="M87.2889 0L46.6362 40.7275C46.1289 41.2358 45.3191 41.2358 44.8117 40.7275C44.5765 40.4919 44.4388 40.1519 44.4388 39.8119V0H26.2578V54.677C26.2578 58.2317 29.1306 61.1098 32.6788 61.1098H46.6026C49.1361 61.1098 51.6057 60.0932 53.3965 58.299L111.551 0H87.2889Z" fill="#010000"/>
<path d="M348.379 6.43262V61.1096H366.56V21.2943C366.56 20.5841 367.134 20.0085 367.843 20.0085C368.183 20.0085 368.519 20.1431 368.757 20.3821L380.144 31.7901H366.593L384.774 50.0045H398.325L409.41 61.1096H433.743L375.551 2.84426C373.727 1.01642 371.294 0.0334954 368.757 0.0334954H354.833C351.252 -0.00016645 348.379 2.87792 348.379 6.43262Z" fill="#010000"/>
<path d="M316.58 42.8953H307.488C305.021 42.8953 302.992 40.8992 302.992 38.3914V0H266.697L284.845 18.1808V51.4959C284.845 56.8111 289.135 61.1098 294.441 61.1098H329.654C334.959 61.1098 339.25 56.8111 339.25 51.4959V0.0336619H321.069V38.4587C321.069 40.8958 319.076 42.8953 316.573 42.8953H316.58Z" fill="#010000"/>
<path d="M139.668 107.291V161.968H157.849V122.186C157.849 121.476 158.423 120.9 159.132 120.9C159.472 120.9 159.808 121.035 160.046 121.274L171.433 132.682H157.883L176.063 150.896H189.614L200.699 162.001H225.032L166.84 103.702C165.016 101.875 162.583 100.892 160.046 100.892H146.123C142.541 100.892 139.668 103.77 139.668 107.291Z" fill="#010000"/>
<path d="M316.646 130.177L345.878 100.892H320.059L295.29 125.707V100.892L276.467 100.858V169.316L292.35 153.946C294.208 152.118 295.29 149.647 295.29 147.039V135.223H295.83L322.596 162.038H348.414L316.649 130.181L316.646 130.177Z" fill="#010000"/>
<path d="M103.307 103.702L87.7974 119.241V107.291C87.7974 103.736 84.9246 100.858 81.3764 100.858H67.4526C64.9191 100.858 62.4495 101.875 60.6586 103.669L2.4668 161.968H26.7999L67.4526 121.24C67.9599 120.732 68.7697 120.732 69.277 121.24C69.5122 121.476 69.65 121.816 69.65 122.156V137.425L45.1489 161.971H69.482L110.135 121.244C110.642 120.735 111.452 120.735 111.959 121.244C112.194 121.479 112.332 121.819 112.332 122.159V161.974H130.513V107.297C130.513 103.743 127.64 100.865 124.092 100.865H110.168C107.568 100.865 105.132 101.881 103.307 103.709V103.702Z" fill="#010000"/>
<path d="M195.292 119.106H238.243C239.661 119.106 240.81 120.257 240.81 121.678V122.93C240.81 124.351 239.661 125.468 238.243 125.468H201.713L217.969 141.754H225.267L245.44 161.998H269.774L249.6 141.787H250.682C255.279 141.787 258.995 138.031 258.995 133.426L258.961 109.22C258.961 104.615 255.211 100.892 250.648 100.892H177.148L195.296 119.106H195.292Z" fill="#010000"/>
<path d="M472.471 100.858H418.301L433.676 116.262C435.501 118.089 437.933 119.072 440.47 119.072H449.999V169.316L465.374 153.912C467.199 152.085 468.18 149.647 468.18 147.106V119.106H494.674L479.332 103.702C477.474 101.875 475.008 100.858 472.471 100.858Z" fill="#010000"/>
<path d="M400.488 146.631C398.663 144.804 396.231 143.821 393.694 143.821H372.842V137.896H407.413L397.175 127.639C395.451 125.912 393.153 124.963 390.72 124.963H372.842V119.072H390.314C392.847 119.072 395.317 118.056 397.108 116.262L412.483 100.858H360.306C356.556 100.858 353.512 103.904 353.512 107.664V155.198C353.512 158.955 356.553 162.005 360.306 162.005H415.863L400.488 146.635V146.631Z" fill="#010000"/>
<path d="M0 85.1477H98.5421L100.299 83.3198H1.75728L0 85.1477Z" fill="#010000"/>
<path d="M400.085 83.3198L398.328 85.1477H496.161L497.952 83.3198H400.085Z" fill="#010000"/>
<path d="M135.613 90.6314L139.803 87.0094C140.038 86.8074 140.21 86.5348 140.21 86.1981V77.4629H135.613V90.6314Z" fill="#010000"/>
<path d="M128.689 86.1645C128.689 86.8075 128.081 87.3158 127.338 87.3158H119.734L115.914 90.6012H131.931C132.674 90.6012 133.282 90.0929 133.282 89.4499V77.4663H128.685V86.1679L128.689 86.1645Z" fill="#010000"/>
<path d="M140.955 83.1517L143.048 81.3575V77.4292H140.955V83.1517Z" fill="#010000"/>
<path d="M143.824 81.0176L145.753 79.4253V77.4292H143.824V81.0176Z" fill="#010000"/>
<path d="M347.128 82.8452H345.203V88.938L347.128 87.3492V82.8452Z" fill="#010000"/>
<path d="M349.833 82.8452H347.908V86.8072L349.833 85.215V82.8452Z" fill="#010000"/>
<path d="M350.609 85.656C350.575 85.9253 350.475 86.1643 350.27 86.3326L345.404 90.3956H350.609L354.056 87.4165C354.291 87.2482 354.396 86.9755 354.396 86.7399V82.8452H350.612V85.656H350.609Z" fill="#010000"/>
<path d="M209.892 81.085H206.818V83.7274H203.572L205.703 86.2992H206.818V90.6315L216.854 83.7274H209.892V81.085Z" fill="#010000"/>
<path d="M227.704 86.1645C227.704 86.7738 227.096 87.3158 226.387 87.3158H225.137L221.316 90.6012H231.017C231.759 90.6012 232.367 90.0929 232.367 89.4499V77.4663H227.704V86.1679V86.1645Z" fill="#010000"/>
<path d="M239.057 77.4628H234.461V89.4801C234.461 90.1231 235.069 90.6314 235.812 90.6314H238.516C238.856 90.6314 239.192 90.5304 239.464 90.2914L248.993 82.1317V77.4595L239.057 85.9557V77.4595V77.4628Z" fill="#010000"/>
<path d="M155.484 81.0846L152.037 84.03H166.67C167.009 84.03 167.345 83.929 167.617 83.69L171.334 80.7446H156.432C156.093 80.7783 155.757 80.8793 155.484 81.0846Z" fill="#010000"/>
<path d="M187.623 77.4629H184.008L180.967 80.102H187.623V81.0849H180.188L177.113 83.724H187.623V85.0435C187.623 85.3499 187.455 85.6528 187.217 85.8548L181.303 90.6281H187.623L191.813 87.006C192.048 86.8041 192.22 86.4977 192.22 86.1948V83.724H196.275V81.0849H192.22V80.102H196.275V77.4629H187.623Z" fill="#010000"/>
<path d="M294.342 83.0136C294.342 83.7575 295.051 84.4005 295.965 84.4005H305.9C306.307 84.4005 306.71 84.2658 307.016 83.9932L311.071 80.4385H294.342V83.0102V83.0136Z" fill="#010000"/>
<path d="M283.971 77.1899H264.775L269.573 81.2193H279.677L274.64 85.5516L277.48 87.9887L280.893 90.9004V85.0433L284.949 81.5559C285.184 81.3539 285.355 81.0139 285.355 80.711V78.3748C285.389 77.7319 284.781 77.1899 283.971 77.1899Z" fill="#010000"/>
<path d="M323.575 79.866V77.1899H319.754V83.6563C319.721 83.9627 319.889 84.2656 320.127 84.4676L323.575 87.413V80.4719H329.861V84.8042C329.861 85.1105 329.693 85.4135 329.455 85.6155L323.541 90.3887H329.861L334.051 86.733C334.286 86.5311 334.458 86.2247 334.458 85.9218V80.4719H335.741L339.561 77.1865H326.686L323.578 79.8626L323.575 79.866Z" fill="#010000"/>
<path d="M377.069 81.593C376.8 81.391 376.461 81.253 376.122 81.253H368.249V78.4759C368.249 77.7993 367.641 77.2573 366.865 77.2573H363.283V90.8332H368.249V84.535H380.517L377.069 81.5896V81.593Z" fill="#010000"/>
</g>
<defs>
<clipPath id="clip0_810_55758">
<rect width="504" height="169.312" fill="white"/>
</clipPath>
</defs>
</svg>
